solid CATIA STL
  facet normal  0.000000e+000  0.000000e+000 -1.000000e+000
    outer loop
      vertex -1.000000e+000 -4.440892e-016 -1.000000e+000
      vertex -1.000000e+000  5.500000e+000 -1.000000e+000
      vertex  9.822330e-001  9.822330e-001 -1.000000e+000
    endloop
  endfacet
  facet normal  0.000000e+000  -0.000000e+000 -1.000000e+000
    outer loop
      vertex -1.000000e+000 -4.440892e-016 -1.000000e+000
      vertex  9.822330e-001  9.822330e-001 -1.000000e+000
      vertex  2.750000e+000  2.500000e-001 -1.000000e+000
    endloop
  endfacet
  facet normal  0.000000e+000  0.000000e+000 -9.999999e-001
    outer loop
      vertex -1.000000e+000 -4.440892e-016 -1.000000e+000
      vertex  2.750000e+000  2.500000e-001 -1.000000e+000
      vertex -7.071068e-001 -7.071068e-001 -1.000000e+000
    endloop
  endfacet
  facet normal  -0.000000e+000  0.000000e+000 -1.000000e+000
    outer loop
      vertex  6.500000e+000  0.000000e+000 -1.000000e+000
      vertex  6.207107e+000 -7.071068e-001 -1.000000e+000
      vertex  5.500000e+000 -1.000000e+000 -1.000000e+000
    endloop
  endfacet
  facet normal  0.000000e+000  0.000000e+000 -1.000000e+000
    outer loop
      vertex  6.500000e+000  0.000000e+000 -1.000000e+000
      vertex  5.500000e+000 -1.000000e+000 -1.000000e+000
      vertex  2.750000e+000  2.500000e-001 -1.000000e+000
    endloop
  endfacet
  facet normal  0.000000e+000  0.000000e+000 -1.000000e+000
    outer loop
      vertex  6.500000e+000  0.000000e+000 -1.000000e+000
      vertex  2.750000e+000  2.500000e-001 -1.000000e+000
      vertex  4.517767e+000  9.822330e-001 -1.000000e+000
    endloop
  endfacet
  facet normal  0.000000e+000  0.000000e+000 -1.000000e+000
    outer loop
      vertex  6.500000e+000  0.000000e+000 -1.000000e+000
      vertex  4.517767e+000  9.822330e-001 -1.000000e+000
      vertex  6.500000e+000  5.500000e+000 -1.000000e+000
    endloop
  endfacet
  facet normal  -0.000000e+000  0.000000e+000 -1.000000e+000
    outer loop
      vertex -1.000000e+000  5.500000e+000 -1.000000e+000
      vertex  2.750000e+000  5.250000e+000 -1.000000e+000
      vertex  9.822330e-001  4.517767e+000 -1.000000e+000
    endloop
  endfacet
  facet normal  -0.000000e+000  0.000000e+000 -1.000000e+000
    outer loop
      vertex -1.000000e+000  5.500000e+000 -1.000000e+000
      vertex  9.822330e-001  4.517767e+000 -1.000000e+000
      vertex  2.500000e-001  2.750000e+000 -1.000000e+000
    endloop
  endfacet
  facet normal  -0.000000e+000  -0.000000e+000 -1.000000e+000
    outer loop
      vertex -1.000000e+000  5.500000e+000 -1.000000e+000
      vertex  2.500000e-001  2.750000e+000 -1.000000e+000
      vertex  9.822330e-001  9.822330e-001 -1.000000e+000
    endloop
  endfacet
  facet normal  0.000000e+000  0.000000e+000 -1.000000e+000
    outer loop
      vertex  6.500000e+000  5.500000e+000 -1.000000e+000
      vertex  4.517767e+000  9.822330e-001 -1.000000e+000
      vertex  5.250000e+000  2.750000e+000 -1.000000e+000
    endloop
  endfacet
  facet normal  0.000000e+000  0.000000e+000 -1.000000e+000
    outer loop
      vertex  6.500000e+000  5.500000e+000 -1.000000e+000
      vertex  5.250000e+000  2.750000e+000 -1.000000e+000
      vertex  4.517767e+000  4.517767e+000 -1.000000e+000
    endloop
  endfacet
  facet normal  0.000000e+000  0.000000e+000 -1.000000e+000
    outer loop
      vertex  6.500000e+000  5.500000e+000 -1.000000e+000
      vertex  4.517767e+000  4.517767e+000 -1.000000e+000
      vertex  2.750000e+000  5.250000e+000 -1.000000e+000
    endloop
  endfacet
  facet normal  0.000000e+000  0.000000e+000 -1.000000e+000
    outer loop
      vertex  6.207107e+000  6.207107e+000 -1.000000e+000
      vertex  6.500000e+000  5.500000e+000 -1.000000e+000
      vertex  5.500000e+000  6.500000e+000 -1.000000e+000
    endloop
  endfacet
  facet normal  0.000000e+000  -0.000000e+000 -1.000000e+000
    outer loop
      vertex  5.500000e+000  6.500000e+000 -1.000000e+000
      vertex  6.500000e+000  5.500000e+000 -1.000000e+000
      vertex  2.750000e+000  5.250000e+000 -1.000000e+000
    endloop
  endfacet
  facet normal  0.000000e+000  0.000000e+000 -9.999999e-001
    outer loop
      vertex  5.500000e+000  6.500000e+000 -1.000000e+000
      vertex  2.750000e+000  5.250000e+000 -1.000000e+000
      vertex  0.000000e+000  6.500000e+000 -1.000000e+000
    endloop
  endfacet
  facet normal  0.000000e+000  -0.000000e+000 -1.000000e+000
    outer loop
      vertex  0.000000e+000  6.500000e+000 -1.000000e+000
      vertex  2.750000e+000  5.250000e+000 -1.000000e+000
      vertex -1.000000e+000  5.500000e+000 -1.000000e+000
    endloop
  endfacet
  facet normal  0.000000e+000  0.000000e+000 -1.000000e+000
    outer loop
      vertex  0.000000e+000  6.500000e+000 -1.000000e+000
      vertex -1.000000e+000  5.500000e+000 -1.000000e+000
      vertex -7.071068e-001  6.207107e+000 -1.000000e+000
    endloop
  endfacet
  facet normal  0.000000e+000  0.000000e+000 -1.000000e+000
    outer loop
      vertex -3.330669e-016 -1.000000e+000 -1.000000e+000
      vertex -7.071068e-001 -7.071068e-001 -1.000000e+000
      vertex  5.500000e+000 -1.000000e+000 -1.000000e+000
    endloop
  endfacet
  facet normal  0.000000e+000  0.000000e+000 -1.000000e+000
    outer loop
      vertex  5.500000e+000 -1.000000e+000 -1.000000e+000
      vertex -7.071068e-001 -7.071068e-001 -1.000000e+000
      vertex  2.750000e+000  2.500000e-001 -1.000000e+000
    endloop
  endfacet
  facet normal  9.238795e-001  3.826834e-001  -0.000000e+000
    outer loop
      vertex  5.250000e+000  2.750000e+000 -1.000000e+000
      vertex  5.250000e+000  2.750000e+000 -4.000000e+000
      vertex  4.517767e+000  4.517767e+000 -1.000000e+000
    endloop
  endfacet
  facet normal  9.238795e-001  3.826834e-001  0.000000e+000
    outer loop
      vertex  4.517767e+000  4.517767e+000 -1.000000e+000
      vertex  5.250000e+000  2.750000e+000 -4.000000e+000
      vertex  4.517767e+000  4.517767e+000 -4.000000e+000
    endloop
  endfacet
  facet normal  3.826834e-001  9.238795e-001  -0.000000e+000
    outer loop
      vertex  4.517767e+000  4.517767e+000 -1.000000e+000
      vertex  4.517767e+000  4.517767e+000 -4.000000e+000
      vertex  2.750000e+000  5.250000e+000 -1.000000e+000
    endloop
  endfacet
  facet normal  3.826834e-001  9.238795e-001  0.000000e+000
    outer loop
      vertex  2.750000e+000  5.250000e+000 -1.000000e+000
      vertex  4.517767e+000  4.517767e+000 -4.000000e+000
      vertex  2.750000e+000  5.250000e+000 -4.000000e+000
    endloop
  endfacet
  facet normal -3.826834e-001  9.238795e-001  0.000000e+000
    outer loop
      vertex  2.750000e+000  5.250000e+000 -1.000000e+000
      vertex  2.750000e+000  5.250000e+000 -4.000000e+000
      vertex  9.822330e-001  4.517767e+000 -1.000000e+000
    endloop
  endfacet
  facet normal -3.826834e-001  9.238795e-001  0.000000e+000
    outer loop
      vertex  9.822330e-001  4.517767e+000 -1.000000e+000
      vertex  2.750000e+000  5.250000e+000 -4.000000e+000
      vertex  9.822330e-001  4.517767e+000 -4.000000e+000
    endloop
  endfacet
  facet normal -9.238795e-001  3.826834e-001  0.000000e+000
    outer loop
      vertex  9.822330e-001  4.517767e+000 -1.000000e+000
      vertex  9.822330e-001  4.517767e+000 -4.000000e+000
      vertex  2.500000e-001  2.750000e+000 -1.000000e+000
    endloop
  endfacet
  facet normal -9.238795e-001  3.826834e-001  0.000000e+000
    outer loop
      vertex  2.500000e-001  2.750000e+000 -1.000000e+000
      vertex  9.822330e-001  4.517767e+000 -4.000000e+000
      vertex  2.500000e-001  2.750000e+000 -4.000000e+000
    endloop
  endfacet
  facet normal -9.238795e-001 -3.826834e-001  0.000000e+000
    outer loop
      vertex  2.500000e-001  2.750000e+000 -1.000000e+000
      vertex  2.500000e-001  2.750000e+000 -4.000000e+000
      vertex  9.822330e-001  9.822330e-001 -1.000000e+000
    endloop
  endfacet
  facet normal -9.238795e-001 -3.826834e-001  -0.000000e+000
    outer loop
      vertex  9.822330e-001  9.822330e-001 -1.000000e+000
      vertex  2.500000e-001  2.750000e+000 -4.000000e+000
      vertex  9.822330e-001  9.822330e-001 -4.000000e+000
    endloop
  endfacet
  facet normal -3.826834e-001 -9.238795e-001  0.000000e+000
    outer loop
      vertex  9.822330e-001  9.822330e-001 -1.000000e+000
      vertex  9.822330e-001  9.822330e-001 -4.000000e+000
      vertex  2.750000e+000  2.500000e-001 -1.000000e+000
    endloop
  endfacet
  facet normal -3.826834e-001 -9.238795e-001  -0.000000e+000
    outer loop
      vertex  2.750000e+000  2.500000e-001 -1.000000e+000
      vertex  9.822330e-001  9.822330e-001 -4.000000e+000
      vertex  2.750000e+000  2.500000e-001 -4.000000e+000
    endloop
  endfacet
  facet normal  3.826834e-001 -9.238795e-001  0.000000e+000
    outer loop
      vertex  2.750000e+000  2.500000e-001 -1.000000e+000
      vertex  2.750000e+000  2.500000e-001 -4.000000e+000
      vertex  4.517767e+000  9.822330e-001 -1.000000e+000
    endloop
  endfacet
  facet normal  3.826834e-001 -9.238795e-001  0.000000e+000
    outer loop
      vertex  4.517767e+000  9.822330e-001 -1.000000e+000
      vertex  2.750000e+000  2.500000e-001 -4.000000e+000
      vertex  4.517767e+000  9.822330e-001 -4.000000e+000
    endloop
  endfacet
  facet normal  9.238795e-001 -3.826834e-001  0.000000e+000
    outer loop
      vertex  4.517767e+000  9.822330e-001 -1.000000e+000
      vertex  4.517767e+000  9.822330e-001 -4.000000e+000
      vertex  5.250000e+000  2.750000e+000 -1.000000e+000
    endloop
  endfacet
  facet normal  9.238795e-001 -3.826834e-001  0.000000e+000
    outer loop
      vertex  5.250000e+000  2.750000e+000 -1.000000e+000
      vertex  4.517767e+000  9.822330e-001 -4.000000e+000
      vertex  5.250000e+000  2.750000e+000 -4.000000e+000
    endloop
  endfacet
  facet normal  -0.000000e+000  0.000000e+000 -1.000000e+000
    outer loop
      vertex  9.822330e-001  9.822330e-001 -4.000000e+000
      vertex  4.517767e+000  9.822330e-001 -4.000000e+000
      vertex  2.750000e+000  2.500000e-001 -4.000000e+000
    endloop
  endfacet
  facet normal  0.000000e+000  0.000000e+000 -1.000000e+000
    outer loop
      vertex  4.517767e+000  9.822330e-001 -4.000000e+000
      vertex  9.822330e-001  9.822330e-001 -4.000000e+000
      vertex  5.250000e+000  2.750000e+000 -4.000000e+000
    endloop
  endfacet
  facet normal  -0.000000e+000  0.000000e+000 -1.000000e+000
    outer loop
      vertex  5.250000e+000  2.750000e+000 -4.000000e+000
      vertex  9.822330e-001  9.822330e-001 -4.000000e+000
      vertex  2.500000e-001  2.750000e+000 -4.000000e+000
    endloop
  endfacet
  facet normal  0.000000e+000  0.000000e+000 -1.000000e+000
    outer loop
      vertex  5.250000e+000  2.750000e+000 -4.000000e+000
      vertex  2.500000e-001  2.750000e+000 -4.000000e+000
      vertex  4.517767e+000  4.517767e+000 -4.000000e+000
    endloop
  endfacet
  facet normal  -0.000000e+000  0.000000e+000 -1.000000e+000
    outer loop
      vertex  4.517767e+000  4.517767e+000 -4.000000e+000
      vertex  2.500000e-001  2.750000e+000 -4.000000e+000
      vertex  9.822330e-001  4.517767e+000 -4.000000e+000
    endloop
  endfacet
  facet normal  0.000000e+000  0.000000e+000 -1.000000e+000
    outer loop
      vertex  4.517767e+000  4.517767e+000 -4.000000e+000
      vertex  9.822330e-001  4.517767e+000 -4.000000e+000
      vertex  2.750000e+000  5.250000e+000 -4.000000e+000
    endloop
  endfacet
  facet normal  0.000000e+000  -0.000000e+000  1.000000e+000
    outer loop
      vertex  0.000000e+000  5.500000e+000  0.000000e+000
      vertex  5.500000e+000  5.500000e+000  0.000000e+000
      vertex  5.500000e+000  6.500000e+000  0.000000e+000
    endloop
  endfacet
  facet normal  0.000000e+000  0.000000e+000  1.000000e+000
    outer loop
      vertex  0.000000e+000  5.500000e+000  0.000000e+000
      vertex  5.500000e+000  6.500000e+000  0.000000e+000
      vertex  0.000000e+000  6.500000e+000  0.000000e+000
    endloop
  endfacet
  facet normal  0.000000e+000  0.000000e+000  9.999999e-001
    outer loop
      vertex  0.000000e+000  5.500000e+000  0.000000e+000
      vertex  0.000000e+000  6.500000e+000  0.000000e+000
      vertex -7.071068e-001  6.207107e+000  0.000000e+000
    endloop
  endfacet
  facet normal  0.000000e+000  0.000000e+000  9.999999e-001
    outer loop
      vertex  0.000000e+000  5.500000e+000  0.000000e+000
      vertex -7.071068e-001  6.207107e+000  0.000000e+000
      vertex -1.000000e+000  5.500000e+000  0.000000e+000
    endloop
  endfacet
  facet normal  -0.000000e+000  0.000000e+000  1.000000e+000
    outer loop
      vertex  0.000000e+000  5.500000e+000  0.000000e+000
      vertex -1.000000e+000  5.500000e+000  0.000000e+000
      vertex -1.000000e+000 -4.440892e-016  0.000000e+000
    endloop
  endfacet
  facet normal  0.000000e+000  0.000000e+000  1.000000e+000
    outer loop
      vertex  0.000000e+000  5.500000e+000  0.000000e+000
      vertex -1.000000e+000 -4.440892e-016  0.000000e+000
      vertex  0.000000e+000  0.000000e+000  0.000000e+000
    endloop
  endfacet
  facet normal  -0.000000e+000  0.000000e+000  9.999999e-001
    outer loop
      vertex  0.000000e+000  0.000000e+000  0.000000e+000
      vertex -1.000000e+000 -4.440892e-016  0.000000e+000
      vertex -7.071068e-001 -7.071068e-001  0.000000e+000
    endloop
  endfacet
  facet normal  -0.000000e+000  0.000000e+000  9.999999e-001
    outer loop
      vertex  0.000000e+000  0.000000e+000  0.000000e+000
      vertex -7.071068e-001 -7.071068e-001  0.000000e+000
      vertex -3.330669e-016 -1.000000e+000  0.000000e+000
    endloop
  endfacet
  facet normal  0.000000e+000  0.000000e+000  1.000000e+000
    outer loop
      vertex  0.000000e+000  0.000000e+000  0.000000e+000
      vertex -3.330669e-016 -1.000000e+000  0.000000e+000
      vertex  5.500000e+000 -1.000000e+000  0.000000e+000
    endloop
  endfacet
  facet normal  0.000000e+000  -0.000000e+000  1.000000e+000
    outer loop
      vertex  0.000000e+000  0.000000e+000  0.000000e+000
      vertex  5.500000e+000 -1.000000e+000  0.000000e+000
      vertex  5.500000e+000  0.000000e+000  0.000000e+000
    endloop
  endfacet
  facet normal  0.000000e+000  0.000000e+000  9.999999e-001
    outer loop
      vertex  5.500000e+000  0.000000e+000  0.000000e+000
      vertex  5.500000e+000 -1.000000e+000  0.000000e+000
      vertex  6.207107e+000 -7.071068e-001  0.000000e+000
    endloop
  endfacet
  facet normal  0.000000e+000  -0.000000e+000  9.999999e-001
    outer loop
      vertex  5.500000e+000  0.000000e+000  0.000000e+000
      vertex  6.207107e+000 -7.071068e-001  0.000000e+000
      vertex  6.500000e+000  0.000000e+000  0.000000e+000
    endloop
  endfacet
  facet normal  0.000000e+000  -0.000000e+000  1.000000e+000
    outer loop
      vertex  5.500000e+000  0.000000e+000  0.000000e+000
      vertex  6.500000e+000  0.000000e+000  0.000000e+000
      vertex  6.500000e+000  5.500000e+000  0.000000e+000
    endloop
  endfacet
  facet normal  0.000000e+000  0.000000e+000  1.000000e+000
    outer loop
      vertex  5.500000e+000  0.000000e+000  0.000000e+000
      vertex  6.500000e+000  5.500000e+000  0.000000e+000
      vertex  5.500000e+000  5.500000e+000  0.000000e+000
    endloop
  endfacet
  facet normal  0.000000e+000  0.000000e+000  9.999999e-001
    outer loop
      vertex  5.500000e+000  6.500000e+000  0.000000e+000
      vertex  5.500000e+000  5.500000e+000  0.000000e+000
      vertex  6.207107e+000  6.207107e+000  0.000000e+000
    endloop
  endfacet
  facet normal  0.000000e+000  0.000000e+000  9.999999e-001
    outer loop
      vertex  6.207107e+000  6.207107e+000  0.000000e+000
      vertex  5.500000e+000  5.500000e+000  0.000000e+000
      vertex  6.500000e+000  5.500000e+000  0.000000e+000
    endloop
  endfacet
  facet normal  0.000000e+000 -1.000000e+000  0.000000e+000
    outer loop
      vertex -3.330669e-016 -1.000000e+000 -1.000000e+000
      vertex  5.500000e+000 -1.000000e+000 -1.000000e+000
      vertex -3.330669e-016 -1.000000e+000  0.000000e+000
    endloop
  endfacet
  facet normal  0.000000e+000 -1.000000e+000  0.000000e+000
    outer loop
      vertex -3.330669e-016 -1.000000e+000  0.000000e+000
      vertex  5.500000e+000 -1.000000e+000 -1.000000e+000
      vertex  5.500000e+000 -1.000000e+000  0.000000e+000
    endloop
  endfacet
  facet normal -1.000000e+000  0.000000e+000  0.000000e+000
    outer loop
      vertex -1.000000e+000 -4.440892e-016 -1.000000e+000
      vertex -1.000000e+000 -4.440892e-016  0.000000e+000
      vertex -1.000000e+000  5.500000e+000 -1.000000e+000
    endloop
  endfacet
  facet normal -1.000000e+000  0.000000e+000  0.000000e+000
    outer loop
      vertex -1.000000e+000  5.500000e+000 -1.000000e+000
      vertex -1.000000e+000 -4.440892e-016  0.000000e+000
      vertex -1.000000e+000  5.500000e+000  0.000000e+000
    endloop
  endfacet
  facet normal -9.238796e-001 -3.826835e-001  0.000000e+000
    outer loop
      vertex -1.000000e+000 -4.440892e-016  0.000000e+000
      vertex -1.000000e+000 -4.440892e-016 -1.000000e+000
      vertex -7.071068e-001 -7.071068e-001  0.000000e+000
    endloop
  endfacet
  facet normal -9.238796e-001 -3.826835e-001  -0.000000e+000
    outer loop
      vertex -7.071068e-001 -7.071068e-001  0.000000e+000
      vertex -1.000000e+000 -4.440892e-016 -1.000000e+000
      vertex -7.071068e-001 -7.071068e-001 -1.000000e+000
    endloop
  endfacet
  facet normal -3.826835e-001 -9.238796e-001  0.000000e+000
    outer loop
      vertex -7.071068e-001 -7.071068e-001  0.000000e+000
      vertex -7.071068e-001 -7.071068e-001 -1.000000e+000
      vertex -3.330669e-016 -1.000000e+000  0.000000e+000
    endloop
  endfacet
  facet normal -3.826835e-001 -9.238796e-001  -0.000000e+000
    outer loop
      vertex -3.330669e-016 -1.000000e+000  0.000000e+000
      vertex -7.071068e-001 -7.071068e-001 -1.000000e+000
      vertex -3.330669e-016 -1.000000e+000 -1.000000e+000
    endloop
  endfacet
  facet normal  1.000000e+000  0.000000e+000  0.000000e+000
    outer loop
      vertex  6.500000e+000  5.500000e+000 -1.000000e+000
      vertex  6.500000e+000  5.500000e+000  0.000000e+000
      vertex  6.500000e+000  0.000000e+000 -1.000000e+000
    endloop
  endfacet
  facet normal  1.000000e+000  0.000000e+000  0.000000e+000
    outer loop
      vertex  6.500000e+000  0.000000e+000 -1.000000e+000
      vertex  6.500000e+000  5.500000e+000  0.000000e+000
      vertex  6.500000e+000  0.000000e+000  0.000000e+000
    endloop
  endfacet
  facet normal  3.826835e-001 -9.238795e-001  0.000000e+000
    outer loop
      vertex  5.500000e+000 -1.000000e+000  0.000000e+000
      vertex  5.500000e+000 -1.000000e+000 -1.000000e+000
      vertex  6.207107e+000 -7.071068e-001  0.000000e+000
    endloop
  endfacet
  facet normal  3.826835e-001 -9.238795e-001  0.000000e+000
    outer loop
      vertex  6.207107e+000 -7.071068e-001  0.000000e+000
      vertex  5.500000e+000 -1.000000e+000 -1.000000e+000
      vertex  6.207107e+000 -7.071068e-001 -1.000000e+000
    endloop
  endfacet
  facet normal  9.238794e-001 -3.826837e-001  0.000000e+000
    outer loop
      vertex  6.207107e+000 -7.071068e-001  0.000000e+000
      vertex  6.207107e+000 -7.071068e-001 -1.000000e+000
      vertex  6.500000e+000  0.000000e+000  0.000000e+000
    endloop
  endfacet
  facet normal  9.238794e-001 -3.826837e-001  0.000000e+000
    outer loop
      vertex  6.500000e+000  0.000000e+000  0.000000e+000
      vertex  6.207107e+000 -7.071068e-001 -1.000000e+000
      vertex  6.500000e+000  0.000000e+000 -1.000000e+000
    endloop
  endfacet
  facet normal  0.000000e+000  1.000000e+000  0.000000e+000
    outer loop
      vertex  5.500000e+000  6.500000e+000 -1.000000e+000
      vertex  0.000000e+000  6.500000e+000 -1.000000e+000
      vertex  5.500000e+000  6.500000e+000  0.000000e+000
    endloop
  endfacet
  facet normal  0.000000e+000  1.000000e+000  0.000000e+000
    outer loop
      vertex  5.500000e+000  6.500000e+000  0.000000e+000
      vertex  0.000000e+000  6.500000e+000 -1.000000e+000
      vertex  0.000000e+000  6.500000e+000  0.000000e+000
    endloop
  endfacet
  facet normal -3.826837e-001  9.238794e-001  0.000000e+000
    outer loop
      vertex  0.000000e+000  6.500000e+000  0.000000e+000
      vertex  0.000000e+000  6.500000e+000 -1.000000e+000
      vertex -7.071068e-001  6.207107e+000  0.000000e+000
    endloop
  endfacet
  facet normal -3.826837e-001  9.238794e-001  0.000000e+000
    outer loop
      vertex -7.071068e-001  6.207107e+000  0.000000e+000
      vertex  0.000000e+000  6.500000e+000 -1.000000e+000
      vertex -7.071068e-001  6.207107e+000 -1.000000e+000
    endloop
  endfacet
  facet normal -9.238795e-001  3.826835e-001  0.000000e+000
    outer loop
      vertex -7.071068e-001  6.207107e+000  0.000000e+000
      vertex -7.071068e-001  6.207107e+000 -1.000000e+000
      vertex -1.000000e+000  5.500000e+000  0.000000e+000
    endloop
  endfacet
  facet normal -9.238795e-001  3.826835e-001  0.000000e+000
    outer loop
      vertex -1.000000e+000  5.500000e+000  0.000000e+000
      vertex -7.071068e-001  6.207107e+000 -1.000000e+000
      vertex -1.000000e+000  5.500000e+000 -1.000000e+000
    endloop
  endfacet
  facet normal  9.238794e-001  3.826837e-001  -0.000000e+000
    outer loop
      vertex  6.500000e+000  5.500000e+000  0.000000e+000
      vertex  6.500000e+000  5.500000e+000 -1.000000e+000
      vertex  6.207107e+000  6.207107e+000  0.000000e+000
    endloop
  endfacet
  facet normal  9.238794e-001  3.826837e-001  0.000000e+000
    outer loop
      vertex  6.207107e+000  6.207107e+000  0.000000e+000
      vertex  6.500000e+000  5.500000e+000 -1.000000e+000
      vertex  6.207107e+000  6.207107e+000 -1.000000e+000
    endloop
  endfacet
  facet normal  3.826837e-001  9.238794e-001  -0.000000e+000
    outer loop
      vertex  6.207107e+000  6.207107e+000  0.000000e+000
      vertex  6.207107e+000  6.207107e+000 -1.000000e+000
      vertex  5.500000e+000  6.500000e+000  0.000000e+000
    endloop
  endfacet
  facet normal  3.826837e-001  9.238794e-001  0.000000e+000
    outer loop
      vertex  5.500000e+000  6.500000e+000  0.000000e+000
      vertex  6.207107e+000  6.207107e+000 -1.000000e+000
      vertex  5.500000e+000  6.500000e+000 -1.000000e+000
    endloop
  endfacet
  facet normal -1.000000e+000  0.000000e+000  0.000000e+000
    outer loop
      vertex  0.000000e+000  5.500000e+000  1.500000e+000
      vertex  0.000000e+000  5.500000e+000  0.000000e+000
      vertex  0.000000e+000  0.000000e+000  1.500000e+000
    endloop
  endfacet
  facet normal -1.000000e+000  0.000000e+000  0.000000e+000
    outer loop
      vertex  0.000000e+000  0.000000e+000  1.500000e+000
      vertex  0.000000e+000  5.500000e+000  0.000000e+000
      vertex  0.000000e+000  0.000000e+000  0.000000e+000
    endloop
  endfacet
  facet normal  0.000000e+000  1.000000e+000  -0.000000e+000
    outer loop
      vertex  5.500000e+000  5.500000e+000  1.500000e+000
      vertex  5.500000e+000  5.500000e+000  0.000000e+000
      vertex  0.000000e+000  5.500000e+000  1.500000e+000
    endloop
  endfacet
  facet normal  0.000000e+000  1.000000e+000  0.000000e+000
    outer loop
      vertex  0.000000e+000  5.500000e+000  1.500000e+000
      vertex  5.500000e+000  5.500000e+000  0.000000e+000
      vertex  0.000000e+000  5.500000e+000  0.000000e+000
    endloop
  endfacet
  facet normal  1.000000e+000  0.000000e+000  0.000000e+000
    outer loop
      vertex  5.500000e+000  0.000000e+000  1.500000e+000
      vertex  5.500000e+000  0.000000e+000  0.000000e+000
      vertex  5.500000e+000  5.500000e+000  1.500000e+000
    endloop
  endfacet
  facet normal  1.000000e+000  0.000000e+000  0.000000e+000
    outer loop
      vertex  5.500000e+000  5.500000e+000  1.500000e+000
      vertex  5.500000e+000  0.000000e+000  0.000000e+000
      vertex  5.500000e+000  5.500000e+000  0.000000e+000
    endloop
  endfacet
  facet normal  0.000000e+000 -1.000000e+000  0.000000e+000
    outer loop
      vertex  0.000000e+000  0.000000e+000  1.500000e+000
      vertex  0.000000e+000  0.000000e+000  0.000000e+000
      vertex  5.500000e+000  0.000000e+000  1.500000e+000
    endloop
  endfacet
  facet normal  0.000000e+000 -1.000000e+000  -0.000000e+000
    outer loop
      vertex  5.500000e+000  0.000000e+000  1.500000e+000
      vertex  0.000000e+000  0.000000e+000  0.000000e+000
      vertex  5.500000e+000  0.000000e+000  0.000000e+000
    endloop
  endfacet
  facet normal  0.000000e+000  0.000000e+000  9.999999e-001
    outer loop
      vertex  0.000000e+000  0.000000e+000  1.500000e+000
      vertex  5.500000e+000  0.000000e+000  1.500000e+000
      vertex  0.000000e+000  5.500000e+000  1.500000e+000
    endloop
  endfacet
  facet normal  -0.000000e+000  0.000000e+000  9.999999e-001
    outer loop
      vertex  0.000000e+000  5.500000e+000  1.500000e+000
      vertex  5.500000e+000  0.000000e+000  1.500000e+000
      vertex  5.500000e+000  5.500000e+000  1.500000e+000
    endloop
  endfacet
endsolid CATIA STL
