solid CATIA STL
  facet normal  1.000000e+000  -0.000000e+000  0.000000e+000
    outer loop
      vertex  3.100000e+001  4.390000e+001 -1.000000e+000
      vertex  3.100000e+001  4.290000e+001 -1.000000e+000
      vertex  3.100000e+001  4.290000e+001 -2.000000e+000
    endloop
  endfacet
  facet normal -1.000000e+000  0.000000e+000  0.000000e+000
    outer loop
      vertex  2.900000e+001  4.290000e+001 -2.000000e+000
      vertex  2.900000e+001  4.290000e+001 -1.000000e+000
      vertex  2.900000e+001  4.390000e+001 -1.000000e+000
    endloop
  endfacet
  facet normal  0.000000e+000  0.000000e+000  1.000000e+000
    outer loop
      vertex  2.900000e+001  4.390000e+001 -1.000000e+000
      vertex  2.900000e+001  4.290000e+001 -1.000000e+000
      vertex  3.100000e+001  4.390000e+001 -1.000000e+000
    endloop
  endfacet
  facet normal  0.000000e+000  0.000000e+000  1.000000e+000
    outer loop
      vertex  3.100000e+001  4.390000e+001 -1.000000e+000
      vertex  2.900000e+001  4.290000e+001 -1.000000e+000
      vertex  3.100000e+001  4.290000e+001 -1.000000e+000
    endloop
  endfacet
  facet normal  0.000000e+000  7.071068e-001 -7.071068e-001
    outer loop
      vertex  2.900000e+001  4.390000e+001 -1.000000e+000
      vertex  3.100000e+001  4.390000e+001 -1.000000e+000
      vertex  2.900000e+001  4.290000e+001 -2.000000e+000
    endloop
  endfacet
  facet normal  0.000000e+000  7.071068e-001 -7.071068e-001
    outer loop
      vertex  2.900000e+001  4.290000e+001 -2.000000e+000
      vertex  3.100000e+001  4.390000e+001 -1.000000e+000
      vertex  3.100000e+001  4.290000e+001 -2.000000e+000
    endloop
  endfacet
  facet normal  1.000000e+000  -0.000000e+000  0.000000e+000
    outer loop
      vertex  7.000000e+000  4.390000e+001 -1.000000e+000
      vertex  7.000000e+000  4.290000e+001 -1.000000e+000
      vertex  7.000000e+000  4.290000e+001 -2.000000e+000
    endloop
  endfacet
  facet normal -1.000000e+000  0.000000e+000  0.000000e+000
    outer loop
      vertex  5.000000e+000  4.290000e+001 -2.000000e+000
      vertex  5.000000e+000  4.290000e+001 -1.000000e+000
      vertex  5.000000e+000  4.390000e+001 -1.000000e+000
    endloop
  endfacet
  facet normal  0.000000e+000  1.000000e+000  0.000000e+000
    outer loop
      vertex  3.000000e+000  4.290000e+001 -3.000000e+000
      vertex  3.000000e+000  4.290000e+001  0.000000e+000
      vertex  5.000000e+000  4.290000e+001 -1.000000e+000
    endloop
  endfacet
  facet normal  0.000000e+000  1.000000e+000  0.000000e+000
    outer loop
      vertex  3.000000e+000  4.290000e+001 -3.000000e+000
      vertex  5.000000e+000  4.290000e+001 -1.000000e+000
      vertex  5.000000e+000  4.290000e+001 -2.000000e+000
    endloop
  endfacet
  facet normal  -0.000000e+000  1.000000e+000  0.000000e+000
    outer loop
      vertex  3.000000e+000  4.290000e+001 -3.000000e+000
      vertex  5.000000e+000  4.290000e+001 -2.000000e+000
      vertex  7.000000e+000  4.290000e+001 -2.000000e+000
    endloop
  endfacet
  facet normal  -0.000000e+000  1.000000e+000  0.000000e+000
    outer loop
      vertex  3.000000e+000  4.290000e+001 -3.000000e+000
      vertex  7.000000e+000  4.290000e+001 -2.000000e+000
      vertex  2.900000e+001  4.290000e+001 -2.000000e+000
    endloop
  endfacet
  facet normal  -0.000000e+000  1.000000e+000  0.000000e+000
    outer loop
      vertex  3.000000e+000  4.290000e+001 -3.000000e+000
      vertex  2.900000e+001  4.290000e+001 -2.000000e+000
      vertex  3.100000e+001  4.290000e+001 -2.000000e+000
    endloop
  endfacet
  facet normal  0.000000e+000  1.000000e+000  0.000000e+000
    outer loop
      vertex  3.000000e+000  4.290000e+001 -3.000000e+000
      vertex  3.100000e+001  4.290000e+001 -2.000000e+000
      vertex  3.300000e+001  4.290000e+001 -3.000000e+000
    endloop
  endfacet
  facet normal  0.000000e+000  1.000000e+000  0.000000e+000
    outer loop
      vertex  3.000000e+000  4.290000e+001  0.000000e+000
      vertex  3.300000e+001  4.290000e+001  0.000000e+000
      vertex  3.100000e+001  4.290000e+001 -1.000000e+000
    endloop
  endfacet
  facet normal  0.000000e+000  1.000000e+000  0.000000e+000
    outer loop
      vertex  3.000000e+000  4.290000e+001  0.000000e+000
      vertex  3.100000e+001  4.290000e+001 -1.000000e+000
      vertex  2.900000e+001  4.290000e+001 -1.000000e+000
    endloop
  endfacet
  facet normal  0.000000e+000  1.000000e+000  0.000000e+000
    outer loop
      vertex  3.000000e+000  4.290000e+001  0.000000e+000
      vertex  2.900000e+001  4.290000e+001 -1.000000e+000
      vertex  7.000000e+000  4.290000e+001 -1.000000e+000
    endloop
  endfacet
  facet normal  0.000000e+000  1.000000e+000  0.000000e+000
    outer loop
      vertex  3.000000e+000  4.290000e+001  0.000000e+000
      vertex  7.000000e+000  4.290000e+001 -1.000000e+000
      vertex  5.000000e+000  4.290000e+001 -1.000000e+000
    endloop
  endfacet
  facet normal  0.000000e+000  1.000000e+000  -0.000000e+000
    outer loop
      vertex  2.900000e+001  4.290000e+001 -1.000000e+000
      vertex  2.900000e+001  4.290000e+001 -2.000000e+000
      vertex  7.000000e+000  4.290000e+001 -1.000000e+000
    endloop
  endfacet
  facet normal  0.000000e+000  1.000000e+000  0.000000e+000
    outer loop
      vertex  7.000000e+000  4.290000e+001 -1.000000e+000
      vertex  2.900000e+001  4.290000e+001 -2.000000e+000
      vertex  7.000000e+000  4.290000e+001 -2.000000e+000
    endloop
  endfacet
  facet normal  0.000000e+000  1.000000e+000  -0.000000e+000
    outer loop
      vertex  3.300000e+001  4.290000e+001  0.000000e+000
      vertex  3.300000e+001  4.290000e+001 -3.000000e+000
      vertex  3.100000e+001  4.290000e+001 -1.000000e+000
    endloop
  endfacet
  facet normal  0.000000e+000  1.000000e+000  0.000000e+000
    outer loop
      vertex  3.100000e+001  4.290000e+001 -1.000000e+000
      vertex  3.300000e+001  4.290000e+001 -3.000000e+000
      vertex  3.100000e+001  4.290000e+001 -2.000000e+000
    endloop
  endfacet
  facet normal  0.000000e+000  0.000000e+000  1.000000e+000
    outer loop
      vertex  5.000000e+000  4.390000e+001 -1.000000e+000
      vertex  5.000000e+000  4.290000e+001 -1.000000e+000
      vertex  7.000000e+000  4.390000e+001 -1.000000e+000
    endloop
  endfacet
  facet normal  0.000000e+000  0.000000e+000  1.000000e+000
    outer loop
      vertex  7.000000e+000  4.390000e+001 -1.000000e+000
      vertex  5.000000e+000  4.290000e+001 -1.000000e+000
      vertex  7.000000e+000  4.290000e+001 -1.000000e+000
    endloop
  endfacet
  facet normal  0.000000e+000  7.071068e-001 -7.071068e-001
    outer loop
      vertex  5.000000e+000  4.390000e+001 -1.000000e+000
      vertex  7.000000e+000  4.390000e+001 -1.000000e+000
      vertex  5.000000e+000  4.290000e+001 -2.000000e+000
    endloop
  endfacet
  facet normal  0.000000e+000  7.071068e-001 -7.071068e-001
    outer loop
      vertex  5.000000e+000  4.290000e+001 -2.000000e+000
      vertex  7.000000e+000  4.390000e+001 -1.000000e+000
      vertex  7.000000e+000  4.290000e+001 -2.000000e+000
    endloop
  endfacet
  facet normal  1.000000e+000  0.000000e+000  0.000000e+000
    outer loop
      vertex  2.000000e+001  3.000000e+000 -2.000000e+000
      vertex  2.000000e+001  3.000000e+000 -1.000000e+000
      vertex  2.000000e+001  2.000000e+000 -1.000000e+000
    endloop
  endfacet
  facet normal -1.000000e+000  -0.000000e+000  -0.000000e+000
    outer loop
      vertex  1.600000e+001  2.000000e+000 -1.000000e+000
      vertex  1.600000e+001  3.000000e+000 -1.000000e+000
      vertex  1.600000e+001  3.000000e+000 -2.000000e+000
    endloop
  endfacet
  facet normal  0.000000e+000 -1.000000e+000  0.000000e+000
    outer loop
      vertex  3.000000e+000  3.000000e+000  0.000000e+000
      vertex  2.000000e+001  3.000000e+000 -1.000000e+000
      vertex  3.300000e+001  3.000000e+000  0.000000e+000
    endloop
  endfacet
  facet normal  0.000000e+000 -1.000000e+000  0.000000e+000
    outer loop
      vertex  3.300000e+001  3.000000e+000  0.000000e+000
      vertex  2.000000e+001  3.000000e+000 -1.000000e+000
      vertex  2.000000e+001  3.000000e+000 -2.000000e+000
    endloop
  endfacet
  facet normal  0.000000e+000 -1.000000e+000  0.000000e+000
    outer loop
      vertex  3.300000e+001  3.000000e+000  0.000000e+000
      vertex  2.000000e+001  3.000000e+000 -2.000000e+000
      vertex  3.300000e+001  3.000000e+000 -3.000000e+000
    endloop
  endfacet
  facet normal  0.000000e+000 -1.000000e+000  0.000000e+000
    outer loop
      vertex  2.000000e+001  3.000000e+000 -1.000000e+000
      vertex  3.000000e+000  3.000000e+000  0.000000e+000
      vertex  1.600000e+001  3.000000e+000 -1.000000e+000
    endloop
  endfacet
  facet normal  -0.000000e+000 -1.000000e+000  0.000000e+000
    outer loop
      vertex  1.600000e+001  3.000000e+000 -1.000000e+000
      vertex  3.000000e+000  3.000000e+000  0.000000e+000
      vertex  3.000000e+000  3.000000e+000 -3.000000e+000
    endloop
  endfacet
  facet normal  0.000000e+000 -1.000000e+000  0.000000e+000
    outer loop
      vertex  1.600000e+001  3.000000e+000 -1.000000e+000
      vertex  3.000000e+000  3.000000e+000 -3.000000e+000
      vertex  1.600000e+001  3.000000e+000 -2.000000e+000
    endloop
  endfacet
  facet normal  0.000000e+000 -1.000000e+000  -0.000000e+000
    outer loop
      vertex  1.600000e+001  3.000000e+000 -2.000000e+000
      vertex  3.000000e+000  3.000000e+000 -3.000000e+000
      vertex  3.300000e+001  3.000000e+000 -3.000000e+000
    endloop
  endfacet
  facet normal  0.000000e+000 -1.000000e+000  0.000000e+000
    outer loop
      vertex  1.600000e+001  3.000000e+000 -2.000000e+000
      vertex  3.300000e+001  3.000000e+000 -3.000000e+000
      vertex  2.000000e+001  3.000000e+000 -2.000000e+000
    endloop
  endfacet
  facet normal  0.000000e+000  0.000000e+000  1.000000e+000
    outer loop
      vertex  1.600000e+001  2.000000e+000 -1.000000e+000
      vertex  2.000000e+001  2.000000e+000 -1.000000e+000
      vertex  1.600000e+001  3.000000e+000 -1.000000e+000
    endloop
  endfacet
  facet normal  -0.000000e+000  0.000000e+000  1.000000e+000
    outer loop
      vertex  1.600000e+001  3.000000e+000 -1.000000e+000
      vertex  2.000000e+001  2.000000e+000 -1.000000e+000
      vertex  2.000000e+001  3.000000e+000 -1.000000e+000
    endloop
  endfacet
  facet normal  0.000000e+000 -7.071068e-001 -7.071068e-001
    outer loop
      vertex  2.000000e+001  2.000000e+000 -1.000000e+000
      vertex  1.600000e+001  2.000000e+000 -1.000000e+000
      vertex  2.000000e+001  3.000000e+000 -2.000000e+000
    endloop
  endfacet
  facet normal  -0.000000e+000 -7.071068e-001 -7.071068e-001
    outer loop
      vertex  2.000000e+001  3.000000e+000 -2.000000e+000
      vertex  1.600000e+001  2.000000e+000 -1.000000e+000
      vertex  1.600000e+001  3.000000e+000 -2.000000e+000
    endloop
  endfacet
  facet normal  0.000000e+000  0.000000e+000 -1.000000e+000
    outer loop
      vertex  2.928932e-001  4.970711e+001  0.000000e+000
      vertex  1.000000e+000  5.000000e+001  0.000000e+000
      vertex  0.000000e+000  4.900000e+001  0.000000e+000
    endloop
  endfacet
  facet normal  0.000000e+000  0.000000e+000 -1.000000e+000
    outer loop
      vertex  2.400000e+001  4.125000e+001  0.000000e+000
      vertex  9.250000e+000  4.125000e+001  0.000000e+000
      vertex  3.000000e+000  4.190000e+001  0.000000e+000
    endloop
  endfacet
  facet normal  0.000000e+000  0.000000e+000 -1.000000e+000
    outer loop
      vertex  2.400000e+001  4.125000e+001  0.000000e+000
      vertex  3.000000e+000  4.190000e+001  0.000000e+000
      vertex  3.300000e+001  4.190000e+001  0.000000e+000
    endloop
  endfacet
  facet normal  0.000000e+000  -0.000000e+000 -1.000000e+000
    outer loop
      vertex  2.400000e+001  4.125000e+001  0.000000e+000
      vertex  3.300000e+001  4.190000e+001  0.000000e+000
      vertex  3.300000e+001  1.300000e+001  0.000000e+000
    endloop
  endfacet
  facet normal  0.000000e+000  0.000000e+000 -1.000000e+000
    outer loop
      vertex  2.400000e+001  4.125000e+001  0.000000e+000
      vertex  3.300000e+001  1.300000e+001  0.000000e+000
      vertex  3.200000e+001  1.300000e+001  0.000000e+000
    endloop
  endfacet
  facet normal  0.000000e+000  0.000000e+000 -1.000000e+000
    outer loop
      vertex  2.400000e+001  4.125000e+001  0.000000e+000
      vertex  3.200000e+001  1.300000e+001  0.000000e+000
      vertex  3.160000e+001  1.340000e+001  0.000000e+000
    endloop
  endfacet
  facet normal  0.000000e+000  0.000000e+000 -1.000000e+000
    outer loop
      vertex  3.600000e+001  3.000000e+000  0.000000e+000
      vertex  3.559808e+001  1.500000e+000  0.000000e+000
      vertex  3.300000e+001  3.000000e+000  0.000000e+000
    endloop
  endfacet
  facet normal  0.000000e+000  0.000000e+000 -1.000000e+000
    outer loop
      vertex  3.600000e+001  3.000000e+000  0.000000e+000
      vertex  3.300000e+001  3.000000e+000  0.000000e+000
      vertex  3.300000e+001  1.300000e+001  0.000000e+000
    endloop
  endfacet
  facet normal  0.000000e+000  0.000000e+000 -1.000000e+000
    outer loop
      vertex  3.600000e+001  3.000000e+000  0.000000e+000
      vertex  3.300000e+001  1.300000e+001  0.000000e+000
      vertex  3.300000e+001  4.190000e+001  0.000000e+000
    endloop
  endfacet
  facet normal  0.000000e+000  0.000000e+000 -1.000000e+000
    outer loop
      vertex  3.600000e+001  3.000000e+000  0.000000e+000
      vertex  3.300000e+001  4.190000e+001  0.000000e+000
      vertex  3.300000e+001  4.290000e+001  0.000000e+000
    endloop
  endfacet
  facet normal  0.000000e+000  0.000000e+000 -1.000000e+000
    outer loop
      vertex  3.600000e+001  3.000000e+000  0.000000e+000
      vertex  3.300000e+001  4.290000e+001  0.000000e+000
      vertex  3.600000e+001  4.300000e+001  0.000000e+000
    endloop
  endfacet
  facet normal  0.000000e+000  0.000000e+000 -1.000000e+000
    outer loop
      vertex  0.000000e+000  3.000000e+000  0.000000e+000
      vertex  0.000000e+000  4.900000e+001  0.000000e+000
      vertex  3.000000e+000  4.290000e+001  0.000000e+000
    endloop
  endfacet
  facet normal  0.000000e+000  -0.000000e+000 -1.000000e+000
    outer loop
      vertex  0.000000e+000  3.000000e+000  0.000000e+000
      vertex  3.000000e+000  4.290000e+001  0.000000e+000
      vertex  3.000000e+000  4.190000e+001  0.000000e+000
    endloop
  endfacet
  facet normal  0.000000e+000  -0.000000e+000 -1.000000e+000
    outer loop
      vertex  0.000000e+000  3.000000e+000  0.000000e+000
      vertex  3.000000e+000  4.190000e+001  0.000000e+000
      vertex  9.250000e+000  4.125000e+001  0.000000e+000
    endloop
  endfacet
  facet normal  0.000000e+000  0.000000e+000 -1.000000e+000
    outer loop
      vertex  0.000000e+000  3.000000e+000  0.000000e+000
      vertex  9.250000e+000  4.125000e+001  0.000000e+000
      vertex  3.000000e+000  1.300000e+001  0.000000e+000
    endloop
  endfacet
  facet normal  0.000000e+000  -0.000000e+000 -1.000000e+000
    outer loop
      vertex  0.000000e+000  3.000000e+000  0.000000e+000
      vertex  3.000000e+000  1.300000e+001  0.000000e+000
      vertex  3.000000e+000  3.000000e+000  0.000000e+000
    endloop
  endfacet
  facet normal  -0.000000e+000  0.000000e+000 -1.000000e+000
    outer loop
      vertex  0.000000e+000  3.000000e+000  0.000000e+000
      vertex  3.000000e+000  3.000000e+000  0.000000e+000
      vertex  4.019238e-001  1.500000e+000  0.000000e+000
    endloop
  endfacet
  facet normal  0.000000e+000  0.000000e+000 -1.000000e+000
    outer loop
      vertex  3.000000e+000  4.290000e+001  0.000000e+000
      vertex  0.000000e+000  4.900000e+001  0.000000e+000
      vertex  1.000000e+000  5.000000e+001  0.000000e+000
    endloop
  endfacet
  facet normal  0.000000e+000  0.000000e+000 -9.999999e-001
    outer loop
      vertex  3.000000e+000  4.290000e+001  0.000000e+000
      vertex  1.000000e+000  5.000000e+001  0.000000e+000
      vertex  1.800000e+001  5.000000e+001  0.000000e+000
    endloop
  endfacet
  facet normal  0.000000e+000  -0.000000e+000 -1.000000e+000
    outer loop
      vertex  3.000000e+000  4.290000e+001  0.000000e+000
      vertex  1.800000e+001  5.000000e+001  0.000000e+000
      vertex  2.145128e+001  4.953350e+001  0.000000e+000
    endloop
  endfacet
  facet normal  0.000000e+000  -0.000000e+000 -1.000000e+000
    outer loop
      vertex  3.000000e+000  4.290000e+001  0.000000e+000
      vertex  2.145128e+001  4.953350e+001  0.000000e+000
      vertex  2.465486e+001  4.816749e+001  0.000000e+000
    endloop
  endfacet
  facet normal  0.000000e+000  -0.000000e+000 -1.000000e+000
    outer loop
      vertex  3.000000e+000  4.290000e+001  0.000000e+000
      vertex  2.465486e+001  4.816749e+001  0.000000e+000
      vertex  2.738083e+001  4.600000e+001  0.000000e+000
    endloop
  endfacet
  facet normal  0.000000e+000  -0.000000e+000 -1.000000e+000
    outer loop
      vertex  3.000000e+000  4.290000e+001  0.000000e+000
      vertex  2.738083e+001  4.600000e+001  0.000000e+000
      vertex  3.300000e+001  4.600000e+001  0.000000e+000
    endloop
  endfacet
  facet normal  0.000000e+000  -0.000000e+000 -1.000000e+000
    outer loop
      vertex  3.000000e+000  4.290000e+001  0.000000e+000
      vertex  3.300000e+001  4.600000e+001  0.000000e+000
      vertex  3.300000e+001  4.290000e+001  0.000000e+000
    endloop
  endfacet
  facet normal  0.000000e+000  0.000000e+000 -1.000000e+000
    outer loop
      vertex  3.160000e+001  1.340000e+001  0.000000e+000
      vertex  4.800000e+000  1.340000e+001  0.000000e+000
      vertex  9.250000e+000  1.450000e+001  0.000000e+000
    endloop
  endfacet
  facet normal  0.000000e+000  0.000000e+000 -1.000000e+000
    outer loop
      vertex  3.160000e+001  1.340000e+001  0.000000e+000
      vertex  9.250000e+000  1.450000e+001  0.000000e+000
      vertex  2.400000e+001  1.450000e+001  0.000000e+000
    endloop
  endfacet
  facet normal  0.000000e+000  0.000000e+000 -9.999999e-001
    outer loop
      vertex  3.160000e+001  1.340000e+001  0.000000e+000
      vertex  2.400000e+001  1.450000e+001  0.000000e+000
      vertex  2.400000e+001  4.125000e+001  0.000000e+000
    endloop
  endfacet
  facet normal  0.000000e+000  0.000000e+000 -1.000000e+000
    outer loop
      vertex  3.300000e+001  0.000000e+000  0.000000e+000
      vertex  3.559808e+001  1.500000e+000  0.000000e+000
      vertex  3.450000e+001  4.019238e-001  0.000000e+000
    endloop
  endfacet
  facet normal  0.000000e+000  0.000000e+000 -9.999999e-001
    outer loop
      vertex  3.559808e+001  1.500000e+000  0.000000e+000
      vertex  3.300000e+001  0.000000e+000  0.000000e+000
      vertex  3.300000e+001  3.000000e+000  0.000000e+000
    endloop
  endfacet
  facet normal  0.000000e+000  -0.000000e+000 -1.000000e+000
    outer loop
      vertex  3.300000e+001  3.000000e+000  0.000000e+000
      vertex  3.300000e+001  0.000000e+000  0.000000e+000
      vertex  3.000000e+000  0.000000e+000  0.000000e+000
    endloop
  endfacet
  facet normal  0.000000e+000  0.000000e+000 -1.000000e+000
    outer loop
      vertex  3.300000e+001  3.000000e+000  0.000000e+000
      vertex  3.000000e+000  0.000000e+000  0.000000e+000
      vertex  3.000000e+000  3.000000e+000  0.000000e+000
    endloop
  endfacet
  facet normal  0.000000e+000  -0.000000e+000 -1.000000e+000
    outer loop
      vertex  3.000000e+000  3.000000e+000  0.000000e+000
      vertex  3.000000e+000  0.000000e+000  0.000000e+000
      vertex  1.500000e+000  4.019238e-001  0.000000e+000
    endloop
  endfacet
  facet normal  0.000000e+000  0.000000e+000 -1.000000e+000
    outer loop
      vertex  3.000000e+000  3.000000e+000  0.000000e+000
      vertex  1.500000e+000  4.019238e-001  0.000000e+000
      vertex  4.019238e-001  1.500000e+000  0.000000e+000
    endloop
  endfacet
  facet normal  0.000000e+000  0.000000e+000 -1.000000e+000
    outer loop
      vertex  3.000000e+000  1.300000e+001  0.000000e+000
      vertex  4.800000e+000  1.340000e+001  0.000000e+000
      vertex  4.000000e+000  1.300000e+001  0.000000e+000
    endloop
  endfacet
  facet normal  0.000000e+000  0.000000e+000 -9.999999e-001
    outer loop
      vertex  4.000000e+000  1.300000e+001  0.000000e+000
      vertex  4.800000e+000  1.340000e+001  0.000000e+000
      vertex  4.800000e+000  4.400000e+000  0.000000e+000
    endloop
  endfacet
  facet normal  -0.000000e+000  0.000000e+000 -1.000000e+000
    outer loop
      vertex  4.000000e+000  1.300000e+001  0.000000e+000
      vertex  4.800000e+000  4.400000e+000  0.000000e+000
      vertex  4.000000e+000  4.000000e+000  0.000000e+000
    endloop
  endfacet
  facet normal  0.000000e+000  0.000000e+000 -1.000000e+000
    outer loop
      vertex  4.000000e+000  4.000000e+000  0.000000e+000
      vertex  4.800000e+000  4.400000e+000  0.000000e+000
      vertex  3.160000e+001  4.400000e+000  0.000000e+000
    endloop
  endfacet
  facet normal  0.000000e+000  -0.000000e+000 -1.000000e+000
    outer loop
      vertex  4.000000e+000  4.000000e+000  0.000000e+000
      vertex  3.160000e+001  4.400000e+000  0.000000e+000
      vertex  3.200000e+001  4.000000e+000  0.000000e+000
    endloop
  endfacet
  facet normal  0.000000e+000  0.000000e+000 -1.000000e+000
    outer loop
      vertex  3.200000e+001  4.000000e+000  0.000000e+000
      vertex  3.160000e+001  4.400000e+000  0.000000e+000
      vertex  3.160000e+001  1.340000e+001  0.000000e+000
    endloop
  endfacet
  facet normal  0.000000e+000  0.000000e+000 -9.999999e-001
    outer loop
      vertex  3.200000e+001  4.000000e+000  0.000000e+000
      vertex  3.160000e+001  1.340000e+001  0.000000e+000
      vertex  3.200000e+001  1.300000e+001  0.000000e+000
    endloop
  endfacet
  facet normal  -0.000000e+000  0.000000e+000 -1.000000e+000
    outer loop
      vertex  3.300000e+001  4.600000e+001  0.000000e+000
      vertex  3.450000e+001  4.559808e+001  0.000000e+000
      vertex  3.300000e+001  4.290000e+001  0.000000e+000
    endloop
  endfacet
  facet normal  0.000000e+000  0.000000e+000 -1.000000e+000
    outer loop
      vertex  3.300000e+001  4.290000e+001  0.000000e+000
      vertex  3.450000e+001  4.559808e+001  0.000000e+000
      vertex  3.559808e+001  4.450000e+001  0.000000e+000
    endloop
  endfacet
  facet normal  0.000000e+000  -0.000000e+000 -1.000000e+000
    outer loop
      vertex  3.300000e+001  4.290000e+001  0.000000e+000
      vertex  3.559808e+001  4.450000e+001  0.000000e+000
      vertex  3.600000e+001  4.300000e+001  0.000000e+000
    endloop
  endfacet
  facet normal  0.000000e+000  0.000000e+000 -1.000000e+000
    outer loop
      vertex  4.800000e+000  1.340000e+001  0.000000e+000
      vertex  3.000000e+000  1.300000e+001  0.000000e+000
      vertex  9.250000e+000  1.450000e+001  0.000000e+000
    endloop
  endfacet
  facet normal  -0.000000e+000  0.000000e+000 -1.000000e+000
    outer loop
      vertex  9.250000e+000  1.450000e+001  0.000000e+000
      vertex  3.000000e+000  1.300000e+001  0.000000e+000
      vertex  9.250000e+000  4.125000e+001  0.000000e+000
    endloop
  endfacet
  facet normal -1.000000e+000  0.000000e+000  0.000000e+000
    outer loop
      vertex  3.010000e+001  5.900000e+000  1.000000e+000
      vertex  3.010000e+001  5.900000e+000  2.000000e+000
      vertex  3.010000e+001  1.190000e+001  1.000000e+000
    endloop
  endfacet
  facet normal -1.000000e+000  0.000000e+000  0.000000e+000
    outer loop
      vertex  3.010000e+001  1.190000e+001  1.000000e+000
      vertex  3.010000e+001  5.900000e+000  2.000000e+000
      vertex  3.010000e+001  1.190000e+001  2.000000e+000
    endloop
  endfacet
  facet normal  0.000000e+000 -1.000000e+000  0.000000e+000
    outer loop
      vertex  1.510000e+001  1.190000e+001  1.000000e+000
      vertex  2.110000e+001  1.190000e+001  1.000000e+000
      vertex  1.510000e+001  1.190000e+001  2.000000e+000
    endloop
  endfacet
  facet normal  0.000000e+000 -1.000000e+000  0.000000e+000
    outer loop
      vertex  1.510000e+001  1.190000e+001  2.000000e+000
      vertex  2.110000e+001  1.190000e+001  1.000000e+000
      vertex  2.110000e+001  1.190000e+001  2.000000e+000
    endloop
  endfacet
  facet normal -1.000000e+000  0.000000e+000  0.000000e+000
    outer loop
      vertex  2.110000e+001  5.900000e+000  1.000000e+000
      vertex  2.110000e+001  5.900000e+000  2.000000e+000
      vertex  2.110000e+001  1.190000e+001  1.000000e+000
    endloop
  endfacet
  facet normal -1.000000e+000  0.000000e+000  0.000000e+000
    outer loop
      vertex  2.110000e+001  1.190000e+001  1.000000e+000
      vertex  2.110000e+001  5.900000e+000  2.000000e+000
      vertex  2.110000e+001  1.190000e+001  2.000000e+000
    endloop
  endfacet
  facet normal  0.000000e+000  1.000000e+000  0.000000e+000
    outer loop
      vertex  2.110000e+001  5.900000e+000  1.000000e+000
      vertex  1.510000e+001  5.900000e+000  1.000000e+000
      vertex  2.110000e+001  5.900000e+000  2.000000e+000
    endloop
  endfacet
  facet normal  0.000000e+000  1.000000e+000  0.000000e+000
    outer loop
      vertex  2.110000e+001  5.900000e+000  2.000000e+000
      vertex  1.510000e+001  5.900000e+000  1.000000e+000
      vertex  1.510000e+001  5.900000e+000  2.000000e+000
    endloop
  endfacet
  facet normal  1.000000e+000  0.000000e+000  0.000000e+000
    outer loop
      vertex  1.510000e+001  1.190000e+001  1.000000e+000
      vertex  1.510000e+001  1.190000e+001  2.000000e+000
      vertex  1.510000e+001  5.900000e+000  1.000000e+000
    endloop
  endfacet
  facet normal  1.000000e+000  0.000000e+000  0.000000e+000
    outer loop
      vertex  1.510000e+001  5.900000e+000  1.000000e+000
      vertex  1.510000e+001  1.190000e+001  2.000000e+000
      vertex  1.510000e+001  5.900000e+000  2.000000e+000
    endloop
  endfacet
  facet normal -1.000000e+000  0.000000e+000  0.000000e+000
    outer loop
      vertex  1.230000e+001  5.900000e+000  1.000000e+000
      vertex  1.230000e+001  5.900000e+000  2.000000e+000
      vertex  1.230000e+001  1.190000e+001  1.000000e+000
    endloop
  endfacet
  facet normal -1.000000e+000  0.000000e+000  0.000000e+000
    outer loop
      vertex  1.230000e+001  1.190000e+001  1.000000e+000
      vertex  1.230000e+001  5.900000e+000  2.000000e+000
      vertex  1.230000e+001  1.190000e+001  2.000000e+000
    endloop
  endfacet
  facet normal  0.000000e+000  1.000000e+000  0.000000e+000
    outer loop
      vertex  1.230000e+001  5.900000e+000  1.000000e+000
      vertex  6.300000e+000  5.900000e+000  1.000000e+000
      vertex  1.230000e+001  5.900000e+000  2.000000e+000
    endloop
  endfacet
  facet normal  0.000000e+000  1.000000e+000  0.000000e+000
    outer loop
      vertex  1.230000e+001  5.900000e+000  2.000000e+000
      vertex  6.300000e+000  5.900000e+000  1.000000e+000
      vertex  6.300000e+000  5.900000e+000  2.000000e+000
    endloop
  endfacet
  facet normal  1.000000e+000  0.000000e+000  0.000000e+000
    outer loop
      vertex  6.300000e+000  1.190000e+001  1.000000e+000
      vertex  6.300000e+000  1.190000e+001  2.000000e+000
      vertex  6.300000e+000  5.900000e+000  1.000000e+000
    endloop
  endfacet
  facet normal  1.000000e+000  0.000000e+000  0.000000e+000
    outer loop
      vertex  6.300000e+000  5.900000e+000  1.000000e+000
      vertex  6.300000e+000  1.190000e+001  2.000000e+000
      vertex  6.300000e+000  5.900000e+000  2.000000e+000
    endloop
  endfacet
  facet normal  0.000000e+000 -1.000000e+000  0.000000e+000
    outer loop
      vertex  6.300000e+000  1.190000e+001  1.000000e+000
      vertex  1.230000e+001  1.190000e+001  1.000000e+000
      vertex  6.300000e+000  1.190000e+001  2.000000e+000
    endloop
  endfacet
  facet normal  0.000000e+000 -1.000000e+000  0.000000e+000
    outer loop
      vertex  6.300000e+000  1.190000e+001  2.000000e+000
      vertex  1.230000e+001  1.190000e+001  1.000000e+000
      vertex  1.230000e+001  1.190000e+001  2.000000e+000
    endloop
  endfacet
  facet normal  0.000000e+000  1.000000e+000  0.000000e+000
    outer loop
      vertex  3.010000e+001  5.900000e+000  1.000000e+000
      vertex  2.410000e+001  5.900000e+000  1.000000e+000
      vertex  3.010000e+001  5.900000e+000  2.000000e+000
    endloop
  endfacet
  facet normal  0.000000e+000  1.000000e+000  0.000000e+000
    outer loop
      vertex  3.010000e+001  5.900000e+000  2.000000e+000
      vertex  2.410000e+001  5.900000e+000  1.000000e+000
      vertex  2.410000e+001  5.900000e+000  2.000000e+000
    endloop
  endfacet
  facet normal  1.000000e+000  0.000000e+000  0.000000e+000
    outer loop
      vertex  2.410000e+001  1.190000e+001  1.000000e+000
      vertex  2.410000e+001  1.190000e+001  2.000000e+000
      vertex  2.410000e+001  5.900000e+000  1.000000e+000
    endloop
  endfacet
  facet normal  1.000000e+000  0.000000e+000  0.000000e+000
    outer loop
      vertex  2.410000e+001  5.900000e+000  1.000000e+000
      vertex  2.410000e+001  1.190000e+001  2.000000e+000
      vertex  2.410000e+001  5.900000e+000  2.000000e+000
    endloop
  endfacet
  facet normal  0.000000e+000 -1.000000e+000  0.000000e+000
    outer loop
      vertex  2.410000e+001  1.190000e+001  1.000000e+000
      vertex  3.010000e+001  1.190000e+001  1.000000e+000
      vertex  2.410000e+001  1.190000e+001  2.000000e+000
    endloop
  endfacet
  facet normal  0.000000e+000 -1.000000e+000  0.000000e+000
    outer loop
      vertex  2.410000e+001  1.190000e+001  2.000000e+000
      vertex  3.010000e+001  1.190000e+001  1.000000e+000
      vertex  3.010000e+001  1.190000e+001  2.000000e+000
    endloop
  endfacet
  facet normal  -0.000000e+000  0.000000e+000 -1.000000e+000
    outer loop
      vertex  4.800000e+000  1.340000e+001  1.000000e+000
      vertex  3.160000e+001  1.340000e+001  1.000000e+000
      vertex  3.010000e+001  1.190000e+001  1.000000e+000
    endloop
  endfacet
  facet normal  0.000000e+000  0.000000e+000 -1.000000e+000
    outer loop
      vertex  4.800000e+000  1.340000e+001  1.000000e+000
      vertex  3.010000e+001  1.190000e+001  1.000000e+000
      vertex  2.410000e+001  1.190000e+001  1.000000e+000
    endloop
  endfacet
  facet normal  0.000000e+000  0.000000e+000 -1.000000e+000
    outer loop
      vertex  4.800000e+000  1.340000e+001  1.000000e+000
      vertex  2.410000e+001  1.190000e+001  1.000000e+000
      vertex  2.110000e+001  1.190000e+001  1.000000e+000
    endloop
  endfacet
  facet normal  0.000000e+000  0.000000e+000 -1.000000e+000
    outer loop
      vertex  4.800000e+000  1.340000e+001  1.000000e+000
      vertex  2.110000e+001  1.190000e+001  1.000000e+000
      vertex  1.510000e+001  1.190000e+001  1.000000e+000
    endloop
  endfacet
  facet normal  0.000000e+000  0.000000e+000 -1.000000e+000
    outer loop
      vertex  4.800000e+000  1.340000e+001  1.000000e+000
      vertex  1.510000e+001  1.190000e+001  1.000000e+000
      vertex  1.230000e+001  1.190000e+001  1.000000e+000
    endloop
  endfacet
  facet normal  0.000000e+000  0.000000e+000 -1.000000e+000
    outer loop
      vertex  4.800000e+000  1.340000e+001  1.000000e+000
      vertex  1.230000e+001  1.190000e+001  1.000000e+000
      vertex  6.300000e+000  1.190000e+001  1.000000e+000
    endloop
  endfacet
  facet normal  -0.000000e+000  -0.000000e+000 -9.999999e-001
    outer loop
      vertex  4.800000e+000  1.340000e+001  1.000000e+000
      vertex  6.300000e+000  1.190000e+001  1.000000e+000
      vertex  6.300000e+000  5.900000e+000  1.000000e+000
    endloop
  endfacet
  facet normal  -0.000000e+000  0.000000e+000 -1.000000e+000
    outer loop
      vertex  4.800000e+000  1.340000e+001  1.000000e+000
      vertex  6.300000e+000  5.900000e+000  1.000000e+000
      vertex  4.800000e+000  4.400000e+000  1.000000e+000
    endloop
  endfacet
  facet normal  0.000000e+000  -0.000000e+000 -1.000000e+000
    outer loop
      vertex  4.800000e+000  4.400000e+000  1.000000e+000
      vertex  6.300000e+000  5.900000e+000  1.000000e+000
      vertex  1.230000e+001  5.900000e+000  1.000000e+000
    endloop
  endfacet
  facet normal  0.000000e+000  -0.000000e+000 -1.000000e+000
    outer loop
      vertex  4.800000e+000  4.400000e+000  1.000000e+000
      vertex  1.230000e+001  5.900000e+000  1.000000e+000
      vertex  1.510000e+001  5.900000e+000  1.000000e+000
    endloop
  endfacet
  facet normal  0.000000e+000  -0.000000e+000 -1.000000e+000
    outer loop
      vertex  4.800000e+000  4.400000e+000  1.000000e+000
      vertex  1.510000e+001  5.900000e+000  1.000000e+000
      vertex  2.110000e+001  5.900000e+000  1.000000e+000
    endloop
  endfacet
  facet normal  0.000000e+000  -0.000000e+000 -1.000000e+000
    outer loop
      vertex  4.800000e+000  4.400000e+000  1.000000e+000
      vertex  2.110000e+001  5.900000e+000  1.000000e+000
      vertex  2.410000e+001  5.900000e+000  1.000000e+000
    endloop
  endfacet
  facet normal  0.000000e+000  -0.000000e+000 -1.000000e+000
    outer loop
      vertex  4.800000e+000  4.400000e+000  1.000000e+000
      vertex  2.410000e+001  5.900000e+000  1.000000e+000
      vertex  3.010000e+001  5.900000e+000  1.000000e+000
    endloop
  endfacet
  facet normal  0.000000e+000  -0.000000e+000 -1.000000e+000
    outer loop
      vertex  4.800000e+000  4.400000e+000  1.000000e+000
      vertex  3.010000e+001  5.900000e+000  1.000000e+000
      vertex  3.160000e+001  4.400000e+000  1.000000e+000
    endloop
  endfacet
  facet normal  -0.000000e+000  0.000000e+000 -1.000000e+000
    outer loop
      vertex  1.230000e+001  1.190000e+001  1.000000e+000
      vertex  1.510000e+001  1.190000e+001  1.000000e+000
      vertex  1.230000e+001  5.900000e+000  1.000000e+000
    endloop
  endfacet
  facet normal  0.000000e+000  0.000000e+000 -1.000000e+000
    outer loop
      vertex  1.230000e+001  5.900000e+000  1.000000e+000
      vertex  1.510000e+001  1.190000e+001  1.000000e+000
      vertex  1.510000e+001  5.900000e+000  1.000000e+000
    endloop
  endfacet
  facet normal  -0.000000e+000  0.000000e+000 -9.999999e-001
    outer loop
      vertex  2.110000e+001  1.190000e+001  1.000000e+000
      vertex  2.410000e+001  1.190000e+001  1.000000e+000
      vertex  2.110000e+001  5.900000e+000  1.000000e+000
    endloop
  endfacet
  facet normal  0.000000e+000  0.000000e+000 -9.999999e-001
    outer loop
      vertex  2.110000e+001  5.900000e+000  1.000000e+000
      vertex  2.410000e+001  1.190000e+001  1.000000e+000
      vertex  2.410000e+001  5.900000e+000  1.000000e+000
    endloop
  endfacet
  facet normal  0.000000e+000  0.000000e+000 -9.999999e-001
    outer loop
      vertex  3.010000e+001  5.900000e+000  1.000000e+000
      vertex  3.010000e+001  1.190000e+001  1.000000e+000
      vertex  3.160000e+001  4.400000e+000  1.000000e+000
    endloop
  endfacet
  facet normal  0.000000e+000  0.000000e+000 -1.000000e+000
    outer loop
      vertex  3.160000e+001  4.400000e+000  1.000000e+000
      vertex  3.010000e+001  1.190000e+001  1.000000e+000
      vertex  3.160000e+001  1.340000e+001  1.000000e+000
    endloop
  endfacet
  facet normal  0.000000e+000  1.000000e+000  0.000000e+000
    outer loop
      vertex  4.800000e+000  4.400000e+000  1.000000e+000
      vertex  3.160000e+001  4.400000e+000  1.000000e+000
      vertex  4.800000e+000  4.400000e+000  0.000000e+000
    endloop
  endfacet
  facet normal  0.000000e+000  1.000000e+000  0.000000e+000
    outer loop
      vertex  4.800000e+000  4.400000e+000  0.000000e+000
      vertex  3.160000e+001  4.400000e+000  1.000000e+000
      vertex  3.160000e+001  4.400000e+000  0.000000e+000
    endloop
  endfacet
  facet normal -1.000000e+000  0.000000e+000  0.000000e+000
    outer loop
      vertex  3.160000e+001  1.340000e+001  1.000000e+000
      vertex  3.160000e+001  1.340000e+001  0.000000e+000
      vertex  3.160000e+001  4.400000e+000  1.000000e+000
    endloop
  endfacet
  facet normal -1.000000e+000  0.000000e+000  0.000000e+000
    outer loop
      vertex  3.160000e+001  4.400000e+000  1.000000e+000
      vertex  3.160000e+001  1.340000e+001  0.000000e+000
      vertex  3.160000e+001  4.400000e+000  0.000000e+000
    endloop
  endfacet
  facet normal  0.000000e+000 -1.000000e+000  0.000000e+000
    outer loop
      vertex  3.160000e+001  1.340000e+001  1.000000e+000
      vertex  4.800000e+000  1.340000e+001  1.000000e+000
      vertex  3.160000e+001  1.340000e+001  0.000000e+000
    endloop
  endfacet
  facet normal  0.000000e+000 -1.000000e+000  0.000000e+000
    outer loop
      vertex  3.160000e+001  1.340000e+001  0.000000e+000
      vertex  4.800000e+000  1.340000e+001  1.000000e+000
      vertex  4.800000e+000  1.340000e+001  0.000000e+000
    endloop
  endfacet
  facet normal  1.000000e+000  0.000000e+000  0.000000e+000
    outer loop
      vertex  4.800000e+000  4.400000e+000  1.000000e+000
      vertex  4.800000e+000  4.400000e+000  0.000000e+000
      vertex  4.800000e+000  1.340000e+001  1.000000e+000
    endloop
  endfacet
  facet normal  1.000000e+000  0.000000e+000  0.000000e+000
    outer loop
      vertex  4.800000e+000  1.340000e+001  1.000000e+000
      vertex  4.800000e+000  4.400000e+000  0.000000e+000
      vertex  4.800000e+000  1.340000e+001  0.000000e+000
    endloop
  endfacet
  facet normal  0.000000e+000  0.000000e+000  1.000000e+000
    outer loop
      vertex  3.000000e+000  1.000000e+000  2.000000e+000
      vertex  3.300000e+001  1.000000e+000  2.000000e+000
      vertex  3.010000e+001  5.900000e+000  2.000000e+000
    endloop
  endfacet
  facet normal  0.000000e+000  0.000000e+000  1.000000e+000
    outer loop
      vertex  3.000000e+000  1.000000e+000  2.000000e+000
      vertex  3.010000e+001  5.900000e+000  2.000000e+000
      vertex  2.410000e+001  5.900000e+000  2.000000e+000
    endloop
  endfacet
  facet normal  0.000000e+000  0.000000e+000  1.000000e+000
    outer loop
      vertex  3.000000e+000  1.000000e+000  2.000000e+000
      vertex  2.410000e+001  5.900000e+000  2.000000e+000
      vertex  2.110000e+001  5.900000e+000  2.000000e+000
    endloop
  endfacet
  facet normal  0.000000e+000  0.000000e+000  1.000000e+000
    outer loop
      vertex  3.000000e+000  1.000000e+000  2.000000e+000
      vertex  2.110000e+001  5.900000e+000  2.000000e+000
      vertex  1.510000e+001  5.900000e+000  2.000000e+000
    endloop
  endfacet
  facet normal  0.000000e+000  0.000000e+000  9.999999e-001
    outer loop
      vertex  3.000000e+000  1.000000e+000  2.000000e+000
      vertex  1.510000e+001  5.900000e+000  2.000000e+000
      vertex  1.230000e+001  5.900000e+000  2.000000e+000
    endloop
  endfacet
  facet normal  0.000000e+000  0.000000e+000  1.000000e+000
    outer loop
      vertex  3.000000e+000  1.000000e+000  2.000000e+000
      vertex  1.230000e+001  5.900000e+000  2.000000e+000
      vertex  6.300000e+000  5.900000e+000  2.000000e+000
    endloop
  endfacet
  facet normal  0.000000e+000  0.000000e+000  1.000000e+000
    outer loop
      vertex  3.000000e+000  1.000000e+000  2.000000e+000
      vertex  6.300000e+000  5.900000e+000  2.000000e+000
      vertex  1.000000e+000  3.000000e+000  2.000000e+000
    endloop
  endfacet
  facet normal  0.000000e+000  0.000000e+000  1.000000e+000
    outer loop
      vertex  3.000000e+000  1.000000e+000  2.000000e+000
      vertex  1.000000e+000  3.000000e+000  2.000000e+000
      vertex  1.585786e+000  1.585786e+000  2.000000e+000
    endloop
  endfacet
  facet normal  0.000000e+000  0.000000e+000  1.000000e+000
    outer loop
      vertex  9.250000e+000  1.450000e+001  2.000000e+000
      vertex  6.300000e+000  1.190000e+001  2.000000e+000
      vertex  1.230000e+001  1.190000e+001  2.000000e+000
    endloop
  endfacet
  facet normal  0.000000e+000  -0.000000e+000  9.999999e-001
    outer loop
      vertex  9.250000e+000  1.450000e+001  2.000000e+000
      vertex  1.230000e+001  1.190000e+001  2.000000e+000
      vertex  1.510000e+001  1.190000e+001  2.000000e+000
    endloop
  endfacet
  facet normal  0.000000e+000  -0.000000e+000  1.000000e+000
    outer loop
      vertex  9.250000e+000  1.450000e+001  2.000000e+000
      vertex  1.510000e+001  1.190000e+001  2.000000e+000
      vertex  2.110000e+001  1.190000e+001  2.000000e+000
    endloop
  endfacet
  facet normal  0.000000e+000  -0.000000e+000  1.000000e+000
    outer loop
      vertex  9.250000e+000  1.450000e+001  2.000000e+000
      vertex  2.110000e+001  1.190000e+001  2.000000e+000
      vertex  2.410000e+001  1.190000e+001  2.000000e+000
    endloop
  endfacet
  facet normal  0.000000e+000  0.000000e+000  1.000000e+000
    outer loop
      vertex  9.250000e+000  1.450000e+001  2.000000e+000
      vertex  2.410000e+001  1.190000e+001  2.000000e+000
      vertex  2.400000e+001  1.450000e+001  2.000000e+000
    endloop
  endfacet
  facet normal  0.000000e+000  -0.000000e+000  1.000000e+000
    outer loop
      vertex  6.300000e+000  1.190000e+001  2.000000e+000
      vertex  9.250000e+000  1.450000e+001  2.000000e+000
      vertex  9.250000e+000  4.125000e+001  2.000000e+000
    endloop
  endfacet
  facet normal  0.000000e+000  0.000000e+000  1.000000e+000
    outer loop
      vertex  6.300000e+000  1.190000e+001  2.000000e+000
      vertex  9.250000e+000  4.125000e+001  2.000000e+000
      vertex  1.000000e+000  4.900000e+001  2.000000e+000
    endloop
  endfacet
  facet normal  0.000000e+000  0.000000e+000  9.999999e-001
    outer loop
      vertex  6.300000e+000  1.190000e+001  2.000000e+000
      vertex  1.000000e+000  4.900000e+001  2.000000e+000
      vertex  1.000000e+000  3.000000e+000  2.000000e+000
    endloop
  endfacet
  facet normal  0.000000e+000  0.000000e+000  1.000000e+000
    outer loop
      vertex  6.300000e+000  1.190000e+001  2.000000e+000
      vertex  1.000000e+000  3.000000e+000  2.000000e+000
      vertex  6.300000e+000  5.900000e+000  2.000000e+000
    endloop
  endfacet
  facet normal  -0.000000e+000  0.000000e+000  1.000000e+000
    outer loop
      vertex  1.800000e+001  4.900000e+001  2.000000e+000
      vertex  1.000000e+000  4.900000e+001  2.000000e+000
      vertex  2.132038e+001  4.853148e+001  2.000000e+000
    endloop
  endfacet
  facet normal  0.000000e+000  0.000000e+000  1.000000e+000
    outer loop
      vertex  2.132038e+001  4.853148e+001  2.000000e+000
      vertex  1.000000e+000  4.900000e+001  2.000000e+000
      vertex  9.250000e+000  4.125000e+001  2.000000e+000
    endloop
  endfacet
  facet normal  0.000000e+000  0.000000e+000  1.000000e+000
    outer loop
      vertex  2.132038e+001  4.853148e+001  2.000000e+000
      vertex  9.250000e+000  4.125000e+001  2.000000e+000
      vertex  2.400000e+001  4.125000e+001  2.000000e+000
    endloop
  endfacet
  facet normal  0.000000e+000  0.000000e+000  1.000000e+000
    outer loop
      vertex  2.438148e+001  4.716252e+001  2.000000e+000
      vertex  2.132038e+001  4.853148e+001  2.000000e+000
      vertex  2.694427e+001  4.500000e+001  2.000000e+000
    endloop
  endfacet
  facet normal  0.000000e+000  0.000000e+000  1.000000e+000
    outer loop
      vertex  2.694427e+001  4.500000e+001  2.000000e+000
      vertex  2.132038e+001  4.853148e+001  2.000000e+000
      vertex  2.400000e+001  4.125000e+001  2.000000e+000
    endloop
  endfacet
  facet normal  -0.000000e+000  0.000000e+000  1.000000e+000
    outer loop
      vertex  3.500000e+001  4.300000e+001  2.000000e+000
      vertex  3.010000e+001  1.190000e+001  2.000000e+000
      vertex  3.500000e+001  3.000000e+000  2.000000e+000
    endloop
  endfacet
  facet normal  0.000000e+000  0.000000e+000  1.000000e+000
    outer loop
      vertex  3.500000e+001  3.000000e+000  2.000000e+000
      vertex  3.010000e+001  1.190000e+001  2.000000e+000
      vertex  3.010000e+001  5.900000e+000  2.000000e+000
    endloop
  endfacet
  facet normal  0.000000e+000  0.000000e+000  1.000000e+000
    outer loop
      vertex  3.500000e+001  3.000000e+000  2.000000e+000
      vertex  3.010000e+001  5.900000e+000  2.000000e+000
      vertex  3.441422e+001  1.585786e+000  2.000000e+000
    endloop
  endfacet
  facet normal  0.000000e+000  0.000000e+000  1.000000e+000
    outer loop
      vertex  3.441422e+001  1.585786e+000  2.000000e+000
      vertex  3.010000e+001  5.900000e+000  2.000000e+000
      vertex  3.300000e+001  1.000000e+000  2.000000e+000
    endloop
  endfacet
  facet normal  0.000000e+000  0.000000e+000  1.000000e+000
    outer loop
      vertex  3.500000e+001  4.300000e+001  2.000000e+000
      vertex  3.441422e+001  4.441422e+001  2.000000e+000
      vertex  3.010000e+001  1.190000e+001  2.000000e+000
    endloop
  endfacet
  facet normal  0.000000e+000  0.000000e+000  1.000000e+000
    outer loop
      vertex  3.010000e+001  1.190000e+001  2.000000e+000
      vertex  3.441422e+001  4.441422e+001  2.000000e+000
      vertex  3.300000e+001  4.500000e+001  2.000000e+000
    endloop
  endfacet
  facet normal  0.000000e+000  0.000000e+000  9.999999e-001
    outer loop
      vertex  3.010000e+001  1.190000e+001  2.000000e+000
      vertex  3.300000e+001  4.500000e+001  2.000000e+000
      vertex  2.410000e+001  1.190000e+001  2.000000e+000
    endloop
  endfacet
  facet normal  0.000000e+000  0.000000e+000  9.999999e-001
    outer loop
      vertex  2.410000e+001  1.190000e+001  2.000000e+000
      vertex  3.300000e+001  4.500000e+001  2.000000e+000
      vertex  2.694427e+001  4.500000e+001  2.000000e+000
    endloop
  endfacet
  facet normal  0.000000e+000  0.000000e+000  1.000000e+000
    outer loop
      vertex  2.410000e+001  1.190000e+001  2.000000e+000
      vertex  2.694427e+001  4.500000e+001  2.000000e+000
      vertex  2.400000e+001  1.450000e+001  2.000000e+000
    endloop
  endfacet
  facet normal  0.000000e+000  0.000000e+000  1.000000e+000
    outer loop
      vertex  2.400000e+001  1.450000e+001  2.000000e+000
      vertex  2.694427e+001  4.500000e+001  2.000000e+000
      vertex  2.400000e+001  4.125000e+001  2.000000e+000
    endloop
  endfacet
  facet normal  0.000000e+000  0.000000e+000  1.000000e+000
    outer loop
      vertex  1.230000e+001  5.900000e+000  2.000000e+000
      vertex  1.510000e+001  5.900000e+000  2.000000e+000
      vertex  1.230000e+001  1.190000e+001  2.000000e+000
    endloop
  endfacet
  facet normal  -0.000000e+000  0.000000e+000  1.000000e+000
    outer loop
      vertex  1.230000e+001  1.190000e+001  2.000000e+000
      vertex  1.510000e+001  5.900000e+000  2.000000e+000
      vertex  1.510000e+001  1.190000e+001  2.000000e+000
    endloop
  endfacet
  facet normal  0.000000e+000  0.000000e+000  9.999999e-001
    outer loop
      vertex  2.110000e+001  5.900000e+000  2.000000e+000
      vertex  2.410000e+001  5.900000e+000  2.000000e+000
      vertex  2.110000e+001  1.190000e+001  2.000000e+000
    endloop
  endfacet
  facet normal  -0.000000e+000  0.000000e+000  9.999999e-001
    outer loop
      vertex  2.110000e+001  1.190000e+001  2.000000e+000
      vertex  2.410000e+001  5.900000e+000  2.000000e+000
      vertex  2.410000e+001  1.190000e+001  2.000000e+000
    endloop
  endfacet
  facet normal  0.000000e+000  1.000000e+000  -0.000000e+000
    outer loop
      vertex  1.800000e+001  5.000000e+001  1.000000e+000
      vertex  1.800000e+001  5.000000e+001  0.000000e+000
      vertex  1.000000e+000  5.000000e+001  1.000000e+000
    endloop
  endfacet
  facet normal  0.000000e+000  1.000000e+000  0.000000e+000
    outer loop
      vertex  1.000000e+000  5.000000e+001  1.000000e+000
      vertex  1.800000e+001  5.000000e+001  0.000000e+000
      vertex  1.000000e+000  5.000000e+001  0.000000e+000
    endloop
  endfacet
  facet normal -9.238796e-001  3.826831e-001  0.000000e+000
    outer loop
      vertex  0.000000e+000  4.900000e+001  0.000000e+000
      vertex  0.000000e+000  4.900000e+001  1.000000e+000
      vertex  2.928932e-001  4.970711e+001  0.000000e+000
    endloop
  endfacet
  facet normal -9.238796e-001  3.826831e-001  0.000000e+000
    outer loop
      vertex  2.928932e-001  4.970711e+001  0.000000e+000
      vertex  0.000000e+000  4.900000e+001  1.000000e+000
      vertex  2.928932e-001  4.970711e+001  1.000000e+000
    endloop
  endfacet
  facet normal -3.826826e-001  9.238799e-001  0.000000e+000
    outer loop
      vertex  2.928932e-001  4.970711e+001  0.000000e+000
      vertex  2.928932e-001  4.970711e+001  1.000000e+000
      vertex  1.000000e+000  5.000000e+001  0.000000e+000
    endloop
  endfacet
  facet normal -3.826826e-001  9.238799e-001  0.000000e+000
    outer loop
      vertex  1.000000e+000  5.000000e+001  0.000000e+000
      vertex  2.928932e-001  4.970711e+001  1.000000e+000
      vertex  1.000000e+000  5.000000e+001  1.000000e+000
    endloop
  endfacet
  facet normal -1.000000e+000  0.000000e+000  0.000000e+000
    outer loop
      vertex  0.000000e+000  4.900000e+001  1.000000e+000
      vertex  0.000000e+000  4.900000e+001  0.000000e+000
      vertex  0.000000e+000  3.000000e+000  1.000000e+000
    endloop
  endfacet
  facet normal -1.000000e+000  0.000000e+000  0.000000e+000
    outer loop
      vertex  0.000000e+000  3.000000e+000  1.000000e+000
      vertex  0.000000e+000  4.900000e+001  0.000000e+000
      vertex  0.000000e+000  3.000000e+000  0.000000e+000
    endloop
  endfacet
  facet normal -2.588190e-001 -9.659259e-001  -0.000000e+000
    outer loop
      vertex  3.000000e+000  0.000000e+000  0.000000e+000
      vertex  3.000000e+000  0.000000e+000  1.000000e+000
      vertex  1.500000e+000  4.019238e-001  0.000000e+000
    endloop
  endfacet
  facet normal -2.588190e-001 -9.659259e-001  0.000000e+000
    outer loop
      vertex  1.500000e+000  4.019238e-001  0.000000e+000
      vertex  3.000000e+000  0.000000e+000  1.000000e+000
      vertex  1.500000e+000  4.019238e-001  1.000000e+000
    endloop
  endfacet
  facet normal -7.071068e-001 -7.071068e-001  -0.000000e+000
    outer loop
      vertex  1.500000e+000  4.019238e-001  0.000000e+000
      vertex  1.500000e+000  4.019238e-001  1.000000e+000
      vertex  4.019238e-001  1.500000e+000  0.000000e+000
    endloop
  endfacet
  facet normal -7.071068e-001 -7.071068e-001  0.000000e+000
    outer loop
      vertex  4.019238e-001  1.500000e+000  0.000000e+000
      vertex  1.500000e+000  4.019238e-001  1.000000e+000
      vertex  4.019238e-001  1.500000e+000  1.000000e+000
    endloop
  endfacet
  facet normal -9.659259e-001 -2.588190e-001  -0.000000e+000
    outer loop
      vertex  4.019238e-001  1.500000e+000  0.000000e+000
      vertex  4.019238e-001  1.500000e+000  1.000000e+000
      vertex  0.000000e+000  3.000000e+000  0.000000e+000
    endloop
  endfacet
  facet normal -9.659259e-001 -2.588190e-001  0.000000e+000
    outer loop
      vertex  0.000000e+000  3.000000e+000  0.000000e+000
      vertex  4.019238e-001  1.500000e+000  1.000000e+000
      vertex  0.000000e+000  3.000000e+000  1.000000e+000
    endloop
  endfacet
  facet normal  0.000000e+000 -1.000000e+000  0.000000e+000
    outer loop
      vertex  3.000000e+000  0.000000e+000  1.000000e+000
      vertex  3.000000e+000  0.000000e+000  0.000000e+000
      vertex  3.300000e+001  0.000000e+000  1.000000e+000
    endloop
  endfacet
  facet normal  0.000000e+000 -1.000000e+000  -0.000000e+000
    outer loop
      vertex  3.300000e+001  0.000000e+000  1.000000e+000
      vertex  3.000000e+000  0.000000e+000  0.000000e+000
      vertex  3.300000e+001  0.000000e+000  0.000000e+000
    endloop
  endfacet
  facet normal  9.659258e-001 -2.588193e-001  0.000000e+000
    outer loop
      vertex  3.600000e+001  3.000000e+000  0.000000e+000
      vertex  3.600000e+001  3.000000e+000  1.000000e+000
      vertex  3.559808e+001  1.500000e+000  0.000000e+000
    endloop
  endfacet
  facet normal  9.659258e-001 -2.588193e-001  0.000000e+000
    outer loop
      vertex  3.559808e+001  1.500000e+000  0.000000e+000
      vertex  3.600000e+001  3.000000e+000  1.000000e+000
      vertex  3.559808e+001  1.500000e+000  1.000000e+000
    endloop
  endfacet
  facet normal  7.071069e-001 -7.071066e-001  0.000000e+000
    outer loop
      vertex  3.559808e+001  1.500000e+000  0.000000e+000
      vertex  3.559808e+001  1.500000e+000  1.000000e+000
      vertex  3.450000e+001  4.019238e-001  0.000000e+000
    endloop
  endfacet
  facet normal  7.071069e-001 -7.071066e-001  0.000000e+000
    outer loop
      vertex  3.450000e+001  4.019238e-001  0.000000e+000
      vertex  3.559808e+001  1.500000e+000  1.000000e+000
      vertex  3.450000e+001  4.019238e-001  1.000000e+000
    endloop
  endfacet
  facet normal  2.588190e-001 -9.659259e-001  0.000000e+000
    outer loop
      vertex  3.450000e+001  4.019238e-001  0.000000e+000
      vertex  3.450000e+001  4.019238e-001  1.000000e+000
      vertex  3.300000e+001  0.000000e+000  0.000000e+000
    endloop
  endfacet
  facet normal  2.588190e-001 -9.659259e-001  0.000000e+000
    outer loop
      vertex  3.300000e+001  0.000000e+000  0.000000e+000
      vertex  3.450000e+001  4.019238e-001  1.000000e+000
      vertex  3.300000e+001  0.000000e+000  1.000000e+000
    endloop
  endfacet
  facet normal  1.000000e+000  0.000000e+000  0.000000e+000
    outer loop
      vertex  3.600000e+001  3.000000e+000  1.000000e+000
      vertex  3.600000e+001  3.000000e+000  0.000000e+000
      vertex  3.600000e+001  4.300000e+001  1.000000e+000
    endloop
  endfacet
  facet normal  1.000000e+000  0.000000e+000  0.000000e+000
    outer loop
      vertex  3.600000e+001  4.300000e+001  1.000000e+000
      vertex  3.600000e+001  3.000000e+000  0.000000e+000
      vertex  3.600000e+001  4.300000e+001  0.000000e+000
    endloop
  endfacet
  facet normal  2.588193e-001  9.659258e-001  0.000000e+000
    outer loop
      vertex  3.300000e+001  4.600000e+001  0.000000e+000
      vertex  3.300000e+001  4.600000e+001  1.000000e+000
      vertex  3.450000e+001  4.559808e+001  0.000000e+000
    endloop
  endfacet
  facet normal  2.588193e-001  9.659258e-001  -0.000000e+000
    outer loop
      vertex  3.450000e+001  4.559808e+001  0.000000e+000
      vertex  3.300000e+001  4.600000e+001  1.000000e+000
      vertex  3.450000e+001  4.559808e+001  1.000000e+000
    endloop
  endfacet
  facet normal  7.071068e-001  7.071068e-001  0.000000e+000
    outer loop
      vertex  3.450000e+001  4.559808e+001  0.000000e+000
      vertex  3.450000e+001  4.559808e+001  1.000000e+000
      vertex  3.559808e+001  4.450000e+001  0.000000e+000
    endloop
  endfacet
  facet normal  7.071068e-001  7.071068e-001  -0.000000e+000
    outer loop
      vertex  3.559808e+001  4.450000e+001  0.000000e+000
      vertex  3.450000e+001  4.559808e+001  1.000000e+000
      vertex  3.559808e+001  4.450000e+001  1.000000e+000
    endloop
  endfacet
  facet normal  9.659258e-001  2.588193e-001  0.000000e+000
    outer loop
      vertex  3.559808e+001  4.450000e+001  0.000000e+000
      vertex  3.559808e+001  4.450000e+001  1.000000e+000
      vertex  3.600000e+001  4.300000e+001  0.000000e+000
    endloop
  endfacet
  facet normal  9.659258e-001  2.588193e-001  -0.000000e+000
    outer loop
      vertex  3.600000e+001  4.300000e+001  0.000000e+000
      vertex  3.559808e+001  4.450000e+001  1.000000e+000
      vertex  3.600000e+001  4.300000e+001  1.000000e+000
    endloop
  endfacet
  facet normal  0.000000e+000  9.999999e-001  0.000000e+000
    outer loop
      vertex  2.738083e+001  4.600000e+001  1.000000e+000
      vertex  3.300000e+001  4.600000e+001  1.000000e+000
      vertex  2.738083e+001  4.600000e+001  0.000000e+000
    endloop
  endfacet
  facet normal  0.000000e+000  9.999999e-001  0.000000e+000
    outer loop
      vertex  2.738083e+001  4.600000e+001  0.000000e+000
      vertex  3.300000e+001  4.600000e+001  1.000000e+000
      vertex  3.300000e+001  4.600000e+001  0.000000e+000
    endloop
  endfacet
  facet normal  1.339491e-001  9.909883e-001  0.000000e+000
    outer loop
      vertex  1.800000e+001  5.000000e+001  0.000000e+000
      vertex  1.800000e+001  5.000000e+001  1.000000e+000
      vertex  2.145128e+001  4.953350e+001  0.000000e+000
    endloop
  endfacet
  facet normal  1.339491e-001  9.909883e-001  -0.000000e+000
    outer loop
      vertex  2.145128e+001  4.953350e+001  0.000000e+000
      vertex  1.800000e+001  5.000000e+001  1.000000e+000
      vertex  2.145128e+001  4.953350e+001  1.000000e+000
    endloop
  endfacet
  facet normal  3.922314e-001  9.198666e-001  0.000000e+000
    outer loop
      vertex  2.145128e+001  4.953350e+001  0.000000e+000
      vertex  2.145128e+001  4.953350e+001  1.000000e+000
      vertex  2.465486e+001  4.816749e+001  0.000000e+000
    endloop
  endfacet
  facet normal  3.922314e-001  9.198666e-001  -0.000000e+000
    outer loop
      vertex  2.465486e+001  4.816749e+001  0.000000e+000
      vertex  2.145128e+001  4.953350e+001  1.000000e+000
      vertex  2.465486e+001  4.816749e+001  1.000000e+000
    endloop
  endfacet
  facet normal  6.223663e-001  7.827262e-001  0.000000e+000
    outer loop
      vertex  2.465486e+001  4.816749e+001  0.000000e+000
      vertex  2.465486e+001  4.816749e+001  1.000000e+000
      vertex  2.738083e+001  4.600000e+001  0.000000e+000
    endloop
  endfacet
  facet normal  6.223663e-001  7.827262e-001  -0.000000e+000
    outer loop
      vertex  2.738083e+001  4.600000e+001  0.000000e+000
      vertex  2.465486e+001  4.816749e+001  1.000000e+000
      vertex  2.738083e+001  4.600000e+001  1.000000e+000
    endloop
  endfacet
  facet normal -9.999999e-001  0.000000e+000  0.000000e+000
    outer loop
      vertex  2.400000e+001  1.450000e+001  0.000000e+000
      vertex  2.400000e+001  1.450000e+001  2.000000e+000
      vertex  2.400000e+001  4.125000e+001  0.000000e+000
    endloop
  endfacet
  facet normal -9.999999e-001  0.000000e+000  0.000000e+000
    outer loop
      vertex  2.400000e+001  4.125000e+001  0.000000e+000
      vertex  2.400000e+001  1.450000e+001  2.000000e+000
      vertex  2.400000e+001  4.125000e+001  2.000000e+000
    endloop
  endfacet
  facet normal  3.701751e-001  8.277358e-001  4.216914e-001
    outer loop
      vertex  2.465486e+001  4.816749e+001  1.000000e+000
      vertex  2.151603e+001  4.921098e+001  1.707107e+000
      vertex  2.475751e+001  4.776135e+001  1.707107e+000
    endloop
  endfacet
  facet normal  1.279420e-001  9.067243e-001  4.018482e-001
    outer loop
      vertex  2.145128e+001  4.953350e+001  1.000000e+000
      vertex  1.800000e+001  4.970711e+001  1.707107e+000
      vertex  2.151603e+001  4.921098e+001  1.707107e+000
    endloop
  endfacet
  facet normal  3.662070e-001  8.588338e-001  3.581854e-001
    outer loop
      vertex  2.145128e+001  4.953350e+001  1.000000e+000
      vertex  2.151603e+001  4.921098e+001  1.707107e+000
      vertex  2.465486e+001  4.816749e+001  1.000000e+000
    endloop
  endfacet
  facet normal  1.239158e-001  9.167593e-001  3.797331e-001
    outer loop
      vertex  1.800000e+001  5.000000e+001  1.000000e+000
      vertex  1.800000e+001  4.970711e+001  1.707107e+000
      vertex  2.145128e+001  4.953350e+001  1.000000e+000
    endloop
  endfacet
  facet normal  5.896061e-001  7.415249e-001  3.201644e-001
    outer loop
      vertex  2.738083e+001  4.600000e+001  1.000000e+000
      vertex  2.465486e+001  4.816749e+001  1.000000e+000
      vertex  2.730033e+001  4.581202e+001  1.583636e+000
    endloop
  endfacet
  facet normal  5.825792e-001  7.384409e-001  3.395684e-001
    outer loop
      vertex  2.730033e+001  4.581202e+001  1.583636e+000
      vertex  2.465486e+001  4.816749e+001  1.000000e+000
      vertex  2.475751e+001  4.776135e+001  1.707107e+000
    endloop
  endfacet
  facet normal  4.084554e-001  4.837854e-001  7.740257e-001
    outer loop
      vertex  2.730033e+001  4.581202e+001  1.583636e+000
      vertex  2.475751e+001  4.776135e+001  1.707107e+000
      vertex  2.714298e+001  4.544925e+001  1.893405e+000
    endloop
  endfacet
  facet normal  1.422084e-001  1.685310e-001  9.753841e-001
    outer loop
      vertex  2.694427e+001  4.500000e+001  2.000000e+000
      vertex  2.714298e+001  4.544925e+001  1.893405e+000
      vertex  2.438148e+001  4.716252e+001  2.000000e+000
    endloop
  endfacet
  facet normal  2.273235e-001  3.089501e-001  9.235117e-001
    outer loop
      vertex  2.438148e+001  4.716252e+001  2.000000e+000
      vertex  2.714298e+001  4.544925e+001  1.893405e+000
      vertex  2.475751e+001  4.776135e+001  1.707107e+000
    endloop
  endfacet
  facet normal  1.575479e-001  3.522880e-001  9.225355e-001
    outer loop
      vertex  2.438148e+001  4.716252e+001  2.000000e+000
      vertex  2.475751e+001  4.776135e+001  1.707107e+000
      vertex  2.132038e+001  4.853148e+001  2.000000e+000
    endloop
  endfacet
  facet normal  1.575478e-001  3.522871e-001  9.225358e-001
    outer loop
      vertex  2.132038e+001  4.853148e+001  2.000000e+000
      vertex  2.475751e+001  4.776135e+001  1.707107e+000
      vertex  2.151603e+001  4.921098e+001  1.707107e+000
    endloop
  endfacet
  facet normal  5.391939e-002  3.821259e-001  9.225359e-001
    outer loop
      vertex  2.132038e+001  4.853148e+001  2.000000e+000
      vertex  2.151603e+001  4.921098e+001  1.707107e+000
      vertex  1.800000e+001  4.900000e+001  2.000000e+000
    endloop
  endfacet
  facet normal  5.391936e-002  3.821263e-001  9.225357e-001
    outer loop
      vertex  1.800000e+001  4.900000e+001  2.000000e+000
      vertex  2.151603e+001  4.921098e+001  1.707107e+000
      vertex  1.800000e+001  4.970711e+001  1.707107e+000
    endloop
  endfacet
  facet normal  0.000000e+000  2.308624e-001  9.729863e-001
    outer loop
      vertex  2.694427e+001  4.500000e+001  2.000000e+000
      vertex  3.300000e+001  4.500000e+001  2.000000e+000
      vertex  2.714298e+001  4.544925e+001  1.893405e+000
    endloop
  endfacet
  facet normal  1.253789e-002  3.826529e-001  9.238070e-001
    outer loop
      vertex  2.714298e+001  4.544925e+001  1.893405e+000
      vertex  3.300000e+001  4.500000e+001  2.000000e+000
      vertex  3.300000e+001  4.570711e+001  1.707107e+000
    endloop
  endfacet
  facet normal -4.479948e-003  6.504925e-001  7.594995e-001
    outer loop
      vertex  2.714298e+001  4.544925e+001  1.893405e+000
      vertex  3.300000e+001  4.570711e+001  1.707107e+000
      vertex  2.730033e+001  4.581202e+001  1.583636e+000
    endloop
  endfacet
  facet normal  -0.000000e+000  9.238799e-001  3.826826e-001
    outer loop
      vertex  3.300000e+001  4.600000e+001  1.000000e+000
      vertex  2.738083e+001  4.600000e+001  1.000000e+000
      vertex  3.300000e+001  4.570711e+001  1.707107e+000
    endloop
  endfacet
  facet normal  1.084018e-002  9.513512e-001  3.079178e-001
    outer loop
      vertex  3.300000e+001  4.570711e+001  1.707107e+000
      vertex  2.738083e+001  4.600000e+001  1.000000e+000
      vertex  2.730033e+001  4.581202e+001  1.583636e+000
    endloop
  endfacet
  facet normal  1.020055e-001  3.806869e-001  9.190606e-001
    outer loop
      vertex  3.300000e+001  4.500000e+001  2.000000e+000
      vertex  3.435355e+001  4.534442e+001  1.707107e+000
      vertex  3.300000e+001  4.570711e+001  1.707107e+000
    endloop
  endfacet
  facet normal  1.265071e-001  3.054163e-001  9.437780e-001
    outer loop
      vertex  3.300000e+001  4.500000e+001  2.000000e+000
      vertex  3.441422e+001  4.441422e+001  2.000000e+000
      vertex  3.435355e+001  4.534442e+001  1.707107e+000
    endloop
  endfacet
  facet normal  3.054163e-001  1.265071e-001  9.437780e-001
    outer loop
      vertex  3.500000e+001  4.300000e+001  2.000000e+000
      vertex  3.534442e+001  4.435355e+001  1.707107e+000
      vertex  3.441422e+001  4.441422e+001  2.000000e+000
    endloop
  endfacet
  facet normal  3.806869e-001  1.020055e-001  9.190606e-001
    outer loop
      vertex  3.500000e+001  4.300000e+001  2.000000e+000
      vertex  3.570711e+001  4.300000e+001  1.707107e+000
      vertex  3.534442e+001  4.435355e+001  1.707107e+000
    endloop
  endfacet
  facet normal  3.040954e-001  3.040954e-001  9.028022e-001
    outer loop
      vertex  3.435355e+001  4.534442e+001  1.707107e+000
      vertex  3.441422e+001  4.441422e+001  2.000000e+000
      vertex  3.534442e+001  4.435355e+001  1.707107e+000
    endloop
  endfacet
  facet normal  8.968088e-001  2.403009e-001  3.714694e-001
    outer loop
      vertex  3.570711e+001  4.300000e+001  1.707107e+000
      vertex  3.600000e+001  4.300000e+001  1.000000e+000
      vertex  3.534442e+001  4.435355e+001  1.707107e+000
    endloop
  endfacet
  facet normal  8.968081e-001  2.402992e-001  3.714719e-001
    outer loop
      vertex  3.534442e+001  4.435355e+001  1.707107e+000
      vertex  3.600000e+001  4.300000e+001  1.000000e+000
      vertex  3.559808e+001  4.450000e+001  1.000000e+000
    endloop
  endfacet
  facet normal  6.565094e-001  6.565094e-001  3.714713e-001
    outer loop
      vertex  3.534442e+001  4.435355e+001  1.707107e+000
      vertex  3.559808e+001  4.450000e+001  1.000000e+000
      vertex  3.435355e+001  4.534442e+001  1.707107e+000
    endloop
  endfacet
  facet normal  6.565094e-001  6.565094e-001  3.714713e-001
    outer loop
      vertex  3.435355e+001  4.534442e+001  1.707107e+000
      vertex  3.559808e+001  4.450000e+001  1.000000e+000
      vertex  3.450000e+001  4.559808e+001  1.000000e+000
    endloop
  endfacet
  facet normal  2.403006e-001  8.968078e-001  3.714721e-001
    outer loop
      vertex  3.435355e+001  4.534442e+001  1.707107e+000
      vertex  3.450000e+001  4.559808e+001  1.000000e+000
      vertex  3.300000e+001  4.570711e+001  1.707107e+000
    endloop
  endfacet
  facet normal  2.402995e-001  8.968091e-001  3.714695e-001
    outer loop
      vertex  3.300000e+001  4.570711e+001  1.707107e+000
      vertex  3.450000e+001  4.559808e+001  1.000000e+000
      vertex  3.300000e+001  4.600000e+001  1.000000e+000
    endloop
  endfacet
  facet normal  9.238799e-001  0.000000e+000  3.826826e-001
    outer loop
      vertex  3.600000e+001  3.000000e+000  1.000000e+000
      vertex  3.600000e+001  4.300000e+001  1.000000e+000
      vertex  3.570711e+001  3.000000e+000  1.707107e+000
    endloop
  endfacet
  facet normal  9.238799e-001  -0.000000e+000  3.826826e-001
    outer loop
      vertex  3.570711e+001  3.000000e+000  1.707107e+000
      vertex  3.600000e+001  4.300000e+001  1.000000e+000
      vertex  3.570711e+001  4.300000e+001  1.707107e+000
    endloop
  endfacet
  facet normal  3.826830e-001  0.000000e+000  9.238797e-001
    outer loop
      vertex  3.570711e+001  3.000000e+000  1.707107e+000
      vertex  3.570711e+001  4.300000e+001  1.707107e+000
      vertex  3.500000e+001  3.000000e+000  2.000000e+000
    endloop
  endfacet
  facet normal  3.826830e-001  -0.000000e+000  9.238797e-001
    outer loop
      vertex  3.500000e+001  3.000000e+000  2.000000e+000
      vertex  3.570711e+001  4.300000e+001  1.707107e+000
      vertex  3.500000e+001  4.300000e+001  2.000000e+000
    endloop
  endfacet
  facet normal  3.806869e-001 -1.020055e-001  9.190606e-001
    outer loop
      vertex  3.500000e+001  3.000000e+000  2.000000e+000
      vertex  3.534442e+001  1.646447e+000  1.707107e+000
      vertex  3.570711e+001  3.000000e+000  1.707107e+000
    endloop
  endfacet
  facet normal  3.054162e-001 -1.265072e-001  9.437780e-001
    outer loop
      vertex  3.500000e+001  3.000000e+000  2.000000e+000
      vertex  3.441422e+001  1.585786e+000  2.000000e+000
      vertex  3.534442e+001  1.646447e+000  1.707107e+000
    endloop
  endfacet
  facet normal  1.265070e-001 -3.054153e-001  9.437782e-001
    outer loop
      vertex  3.300000e+001  1.000000e+000  2.000000e+000
      vertex  3.435355e+001  6.555768e-001  1.707107e+000
      vertex  3.441422e+001  1.585786e+000  2.000000e+000
    endloop
  endfacet
  facet normal  1.020048e-001 -3.806873e-001  9.190605e-001
    outer loop
      vertex  3.300000e+001  1.000000e+000  2.000000e+000
      vertex  3.300000e+001  2.928932e-001  1.707107e+000
      vertex  3.435355e+001  6.555768e-001  1.707107e+000
    endloop
  endfacet
  facet normal  3.040951e-001 -3.040944e-001  9.028028e-001
    outer loop
      vertex  3.534442e+001  1.646447e+000  1.707107e+000
      vertex  3.441422e+001  1.585786e+000  2.000000e+000
      vertex  3.435355e+001  6.555768e-001  1.707107e+000
    endloop
  endfacet
  facet normal  2.402991e-001 -8.968088e-001  3.714703e-001
    outer loop
      vertex  3.300000e+001  2.928932e-001  1.707107e+000
      vertex  3.300000e+001  0.000000e+000  1.000000e+000
      vertex  3.435355e+001  6.555768e-001  1.707107e+000
    endloop
  endfacet
  facet normal  2.402992e-001 -8.968089e-001  3.714703e-001
    outer loop
      vertex  3.435355e+001  6.555768e-001  1.707107e+000
      vertex  3.300000e+001  0.000000e+000  1.000000e+000
      vertex  3.450000e+001  4.019238e-001  1.000000e+000
    endloop
  endfacet
  facet normal  6.565104e-001 -6.565090e-001  3.714699e-001
    outer loop
      vertex  3.435355e+001  6.555768e-001  1.707107e+000
      vertex  3.450000e+001  4.019238e-001  1.000000e+000
      vertex  3.534442e+001  1.646447e+000  1.707107e+000
    endloop
  endfacet
  facet normal  6.565094e-001 -6.565092e-001  3.714715e-001
    outer loop
      vertex  3.534442e+001  1.646447e+000  1.707107e+000
      vertex  3.450000e+001  4.019238e-001  1.000000e+000
      vertex  3.559808e+001  1.500000e+000  1.000000e+000
    endloop
  endfacet
  facet normal  8.968077e-001 -2.403006e-001  3.714722e-001
    outer loop
      vertex  3.534442e+001  1.646447e+000  1.707107e+000
      vertex  3.559808e+001  1.500000e+000  1.000000e+000
      vertex  3.570711e+001  3.000000e+000  1.707107e+000
    endloop
  endfacet
  facet normal  8.968091e-001 -2.402995e-001  3.714695e-001
    outer loop
      vertex  3.570711e+001  3.000000e+000  1.707107e+000
      vertex  3.559808e+001  1.500000e+000  1.000000e+000
      vertex  3.600000e+001  3.000000e+000  1.000000e+000
    endloop
  endfacet
  facet normal  0.000000e+000 -9.238795e-001  3.826834e-001
    outer loop
      vertex  3.000000e+000  0.000000e+000  1.000000e+000
      vertex  3.300000e+001  0.000000e+000  1.000000e+000
      vertex  3.000000e+000  2.928932e-001  1.707107e+000
    endloop
  endfacet
  facet normal  0.000000e+000 -9.238795e-001  3.826834e-001
    outer loop
      vertex  3.000000e+000  2.928932e-001  1.707107e+000
      vertex  3.300000e+001  0.000000e+000  1.000000e+000
      vertex  3.300000e+001  2.928932e-001  1.707107e+000
    endloop
  endfacet
  facet normal  0.000000e+000 -3.826833e-001  9.238795e-001
    outer loop
      vertex  3.000000e+000  2.928932e-001  1.707107e+000
      vertex  3.300000e+001  2.928932e-001  1.707107e+000
      vertex  3.000000e+000  1.000000e+000  2.000000e+000
    endloop
  endfacet
  facet normal  0.000000e+000 -3.826833e-001  9.238795e-001
    outer loop
      vertex  3.000000e+000  1.000000e+000  2.000000e+000
      vertex  3.300000e+001  2.928932e-001  1.707107e+000
      vertex  3.300000e+001  1.000000e+000  2.000000e+000
    endloop
  endfacet
  facet normal -1.020048e-001 -3.806872e-001  9.190605e-001
    outer loop
      vertex  3.000000e+000  1.000000e+000  2.000000e+000
      vertex  1.646447e+000  6.555768e-001  1.707107e+000
      vertex  3.000000e+000  2.928932e-001  1.707107e+000
    endloop
  endfacet
  facet normal -1.265071e-001 -3.054152e-001  9.437783e-001
    outer loop
      vertex  3.000000e+000  1.000000e+000  2.000000e+000
      vertex  1.585786e+000  1.585786e+000  2.000000e+000
      vertex  1.646447e+000  6.555768e-001  1.707107e+000
    endloop
  endfacet
  facet normal -3.054152e-001 -1.265071e-001  9.437783e-001
    outer loop
      vertex  1.000000e+000  3.000000e+000  2.000000e+000
      vertex  6.555768e-001  1.646447e+000  1.707107e+000
      vertex  1.585786e+000  1.585786e+000  2.000000e+000
    endloop
  endfacet
  facet normal -3.806873e-001 -1.020048e-001  9.190605e-001
    outer loop
      vertex  1.000000e+000  3.000000e+000  2.000000e+000
      vertex  2.928932e-001  3.000000e+000  1.707107e+000
      vertex  6.555768e-001  1.646447e+000  1.707107e+000
    endloop
  endfacet
  facet normal -3.040940e-001 -3.040940e-001  9.028032e-001
    outer loop
      vertex  1.646447e+000  6.555768e-001  1.707107e+000
      vertex  1.585786e+000  1.585786e+000  2.000000e+000
      vertex  6.555768e-001  1.646447e+000  1.707107e+000
    endloop
  endfacet
  facet normal -8.968088e-001 -2.402992e-001  3.714704e-001
    outer loop
      vertex  2.928932e-001  3.000000e+000  1.707107e+000
      vertex  0.000000e+000  3.000000e+000  1.000000e+000
      vertex  6.555768e-001  1.646447e+000  1.707107e+000
    endloop
  endfacet
  facet normal -8.968089e-001 -2.402992e-001  3.714704e-001
    outer loop
      vertex  6.555768e-001  1.646447e+000  1.707107e+000
      vertex  0.000000e+000  3.000000e+000  1.000000e+000
      vertex  4.019238e-001  1.500000e+000  1.000000e+000
    endloop
  endfacet
  facet normal -6.565096e-001 -6.565096e-001  3.714703e-001
    outer loop
      vertex  6.555768e-001  1.646447e+000  1.707107e+000
      vertex  4.019238e-001  1.500000e+000  1.000000e+000
      vertex  1.646447e+000  6.555768e-001  1.707107e+000
    endloop
  endfacet
  facet normal -6.565096e-001 -6.565096e-001  3.714703e-001
    outer loop
      vertex  1.646447e+000  6.555768e-001  1.707107e+000
      vertex  4.019238e-001  1.500000e+000  1.000000e+000
      vertex  1.500000e+000  4.019238e-001  1.000000e+000
    endloop
  endfacet
  facet normal -2.402992e-001 -8.968088e-001  3.714704e-001
    outer loop
      vertex  1.646447e+000  6.555768e-001  1.707107e+000
      vertex  1.500000e+000  4.019238e-001  1.000000e+000
      vertex  3.000000e+000  2.928932e-001  1.707107e+000
    endloop
  endfacet
  facet normal -2.402992e-001 -8.968089e-001  3.714704e-001
    outer loop
      vertex  3.000000e+000  2.928932e-001  1.707107e+000
      vertex  1.500000e+000  4.019238e-001  1.000000e+000
      vertex  3.000000e+000  0.000000e+000  1.000000e+000
    endloop
  endfacet
  facet normal -9.238796e-001  0.000000e+000  3.826834e-001
    outer loop
      vertex  0.000000e+000  4.900000e+001  1.000000e+000
      vertex  0.000000e+000  3.000000e+000  1.000000e+000
      vertex  2.928932e-001  4.900000e+001  1.707107e+000
    endloop
  endfacet
  facet normal -9.238796e-001  0.000000e+000  3.826834e-001
    outer loop
      vertex  2.928932e-001  4.900000e+001  1.707107e+000
      vertex  0.000000e+000  3.000000e+000  1.000000e+000
      vertex  2.928932e-001  3.000000e+000  1.707107e+000
    endloop
  endfacet
  facet normal -3.826834e-001  0.000000e+000  9.238796e-001
    outer loop
      vertex  2.928932e-001  4.900000e+001  1.707107e+000
      vertex  2.928932e-001  3.000000e+000  1.707107e+000
      vertex  1.000000e+000  4.900000e+001  2.000000e+000
    endloop
  endfacet
  facet normal -3.826834e-001  0.000000e+000  9.238796e-001
    outer loop
      vertex  1.000000e+000  4.900000e+001  2.000000e+000
      vertex  2.928932e-001  3.000000e+000  1.707107e+000
      vertex  1.000000e+000  3.000000e+000  2.000000e+000
    endloop
  endfacet
  facet normal -3.779644e-001  1.565580e-001  9.124870e-001
    outer loop
      vertex  1.000000e+000  4.900000e+001  2.000000e+000
      vertex  5.000000e-001  4.950000e+001  1.707107e+000
      vertex  2.928932e-001  4.900000e+001  1.707107e+000
    endloop
  endfacet
  facet normal -1.565584e-001  3.779640e-001  9.124871e-001
    outer loop
      vertex  1.000000e+000  4.900000e+001  2.000000e+000
      vertex  1.000000e+000  4.970711e+001  1.707107e+000
      vertex  5.000000e-001  4.950000e+001  1.707107e+000
    endloop
  endfacet
  facet normal -3.574080e-001  8.628561e-001  3.574058e-001
    outer loop
      vertex  1.000000e+000  4.970711e+001  1.707107e+000
      vertex  1.000000e+000  5.000000e+001  1.000000e+000
      vertex  5.000000e-001  4.950000e+001  1.707107e+000
    endloop
  endfacet
  facet normal -3.574059e-001  8.628563e-001  3.574075e-001
    outer loop
      vertex  5.000000e-001  4.950000e+001  1.707107e+000
      vertex  1.000000e+000  5.000000e+001  1.000000e+000
      vertex  2.928932e-001  4.970711e+001  1.000000e+000
    endloop
  endfacet
  facet normal -8.628561e-001  3.574067e-001  3.574070e-001
    outer loop
      vertex  5.000000e-001  4.950000e+001  1.707107e+000
      vertex  2.928932e-001  4.970711e+001  1.000000e+000
      vertex  2.928932e-001  4.900000e+001  1.707107e+000
    endloop
  endfacet
  facet normal -8.628563e-001  3.574064e-001  3.574068e-001
    outer loop
      vertex  2.928932e-001  4.900000e+001  1.707107e+000
      vertex  2.928932e-001  4.970711e+001  1.000000e+000
      vertex  0.000000e+000  4.900000e+001  1.000000e+000
    endloop
  endfacet
  facet normal  -0.000000e+000  9.238799e-001  3.826826e-001
    outer loop
      vertex  1.800000e+001  5.000000e+001  1.000000e+000
      vertex  1.000000e+000  5.000000e+001  1.000000e+000
      vertex  1.800000e+001  4.970711e+001  1.707107e+000
    endloop
  endfacet
  facet normal  0.000000e+000  9.238799e-001  3.826826e-001
    outer loop
      vertex  1.800000e+001  4.970711e+001  1.707107e+000
      vertex  1.000000e+000  5.000000e+001  1.000000e+000
      vertex  1.000000e+000  4.970711e+001  1.707107e+000
    endloop
  endfacet
  facet normal  -0.000000e+000  3.826831e-001  9.238798e-001
    outer loop
      vertex  1.800000e+001  4.970711e+001  1.707107e+000
      vertex  1.000000e+000  4.970711e+001  1.707107e+000
      vertex  1.800000e+001  4.900000e+001  2.000000e+000
    endloop
  endfacet
  facet normal  0.000000e+000  3.826831e-001  9.238798e-001
    outer loop
      vertex  1.800000e+001  4.900000e+001  2.000000e+000
      vertex  1.000000e+000  4.970711e+001  1.707107e+000
      vertex  1.000000e+000  4.900000e+001  2.000000e+000
    endloop
  endfacet
  facet normal -1.000000e+000  0.000000e+000  0.000000e+000
    outer loop
      vertex  3.000000e+000  4.290000e+001 -3.000000e+000
      vertex  3.000000e+000  4.190000e+001 -3.000000e+000
      vertex  3.000000e+000  4.290000e+001  0.000000e+000
    endloop
  endfacet
  facet normal -1.000000e+000  -0.000000e+000  0.000000e+000
    outer loop
      vertex  3.000000e+000  4.290000e+001  0.000000e+000
      vertex  3.000000e+000  4.190000e+001 -3.000000e+000
      vertex  3.000000e+000  4.190000e+001  0.000000e+000
    endloop
  endfacet
  facet normal  0.000000e+000 -1.000000e+000  -0.000000e+000
    outer loop
      vertex  3.300000e+001  4.190000e+001 -3.000000e+000
      vertex  3.300000e+001  4.190000e+001  0.000000e+000
      vertex  3.000000e+000  4.190000e+001 -3.000000e+000
    endloop
  endfacet
  facet normal  0.000000e+000 -1.000000e+000  0.000000e+000
    outer loop
      vertex  3.000000e+000  4.190000e+001 -3.000000e+000
      vertex  3.300000e+001  4.190000e+001  0.000000e+000
      vertex  3.000000e+000  4.190000e+001  0.000000e+000
    endloop
  endfacet
  facet normal  1.000000e+000  0.000000e+000  0.000000e+000
    outer loop
      vertex  3.300000e+001  4.190000e+001 -3.000000e+000
      vertex  3.300000e+001  4.290000e+001 -3.000000e+000
      vertex  3.300000e+001  4.190000e+001  0.000000e+000
    endloop
  endfacet
  facet normal  1.000000e+000  -0.000000e+000  0.000000e+000
    outer loop
      vertex  3.300000e+001  4.190000e+001  0.000000e+000
      vertex  3.300000e+001  4.290000e+001 -3.000000e+000
      vertex  3.300000e+001  4.290000e+001  0.000000e+000
    endloop
  endfacet
  facet normal  1.000000e+000  0.000000e+000  0.000000e+000
    outer loop
      vertex  3.300000e+001  3.000000e+000 -3.000000e+000
      vertex  3.300000e+001  1.300000e+001 -3.000000e+000
      vertex  3.300000e+001  3.000000e+000  0.000000e+000
    endloop
  endfacet
  facet normal  1.000000e+000  -0.000000e+000  0.000000e+000
    outer loop
      vertex  3.300000e+001  3.000000e+000  0.000000e+000
      vertex  3.300000e+001  1.300000e+001 -3.000000e+000
      vertex  3.300000e+001  1.300000e+001  0.000000e+000
    endloop
  endfacet
  facet normal  0.000000e+000  1.000000e+000  0.000000e+000
    outer loop
      vertex  3.300000e+001  1.300000e+001 -3.000000e+000
      vertex  3.200000e+001  1.300000e+001 -3.000000e+000
      vertex  3.300000e+001  1.300000e+001  0.000000e+000
    endloop
  endfacet
  facet normal  0.000000e+000  1.000000e+000  0.000000e+000
    outer loop
      vertex  3.300000e+001  1.300000e+001  0.000000e+000
      vertex  3.200000e+001  1.300000e+001 -3.000000e+000
      vertex  3.200000e+001  1.300000e+001  0.000000e+000
    endloop
  endfacet
  facet normal -1.000000e+000  0.000000e+000  0.000000e+000
    outer loop
      vertex  3.200000e+001  1.300000e+001 -3.000000e+000
      vertex  3.200000e+001  4.000000e+000 -3.000000e+000
      vertex  3.200000e+001  1.300000e+001  0.000000e+000
    endloop
  endfacet
  facet normal -1.000000e+000  -0.000000e+000  0.000000e+000
    outer loop
      vertex  3.200000e+001  1.300000e+001  0.000000e+000
      vertex  3.200000e+001  4.000000e+000 -3.000000e+000
      vertex  3.200000e+001  4.000000e+000  0.000000e+000
    endloop
  endfacet
  facet normal  0.000000e+000  1.000000e+000  0.000000e+000
    outer loop
      vertex  3.200000e+001  4.000000e+000 -3.000000e+000
      vertex  4.000000e+000  4.000000e+000 -3.000000e+000
      vertex  3.200000e+001  4.000000e+000  0.000000e+000
    endloop
  endfacet
  facet normal  0.000000e+000  1.000000e+000  0.000000e+000
    outer loop
      vertex  3.200000e+001  4.000000e+000  0.000000e+000
      vertex  4.000000e+000  4.000000e+000 -3.000000e+000
      vertex  4.000000e+000  4.000000e+000  0.000000e+000
    endloop
  endfacet
  facet normal  1.000000e+000  0.000000e+000  0.000000e+000
    outer loop
      vertex  4.000000e+000  4.000000e+000 -3.000000e+000
      vertex  4.000000e+000  1.300000e+001 -3.000000e+000
      vertex  4.000000e+000  4.000000e+000  0.000000e+000
    endloop
  endfacet
  facet normal  1.000000e+000  -0.000000e+000  0.000000e+000
    outer loop
      vertex  4.000000e+000  4.000000e+000  0.000000e+000
      vertex  4.000000e+000  1.300000e+001 -3.000000e+000
      vertex  4.000000e+000  1.300000e+001  0.000000e+000
    endloop
  endfacet
  facet normal  0.000000e+000  1.000000e+000  0.000000e+000
    outer loop
      vertex  4.000000e+000  1.300000e+001 -3.000000e+000
      vertex  3.000000e+000  1.300000e+001 -3.000000e+000
      vertex  4.000000e+000  1.300000e+001  0.000000e+000
    endloop
  endfacet
  facet normal  0.000000e+000  1.000000e+000  0.000000e+000
    outer loop
      vertex  4.000000e+000  1.300000e+001  0.000000e+000
      vertex  3.000000e+000  1.300000e+001 -3.000000e+000
      vertex  3.000000e+000  1.300000e+001  0.000000e+000
    endloop
  endfacet
  facet normal -1.000000e+000  0.000000e+000  0.000000e+000
    outer loop
      vertex  3.000000e+000  1.300000e+001 -3.000000e+000
      vertex  3.000000e+000  3.000000e+000 -3.000000e+000
      vertex  3.000000e+000  1.300000e+001  0.000000e+000
    endloop
  endfacet
  facet normal -1.000000e+000  -0.000000e+000  0.000000e+000
    outer loop
      vertex  3.000000e+000  1.300000e+001  0.000000e+000
      vertex  3.000000e+000  3.000000e+000 -3.000000e+000
      vertex  3.000000e+000  3.000000e+000  0.000000e+000
    endloop
  endfacet
  facet normal  -0.000000e+000  0.000000e+000 -1.000000e+000
    outer loop
      vertex  3.000000e+000  4.290000e+001 -3.000000e+000
      vertex  3.300000e+001  4.290000e+001 -3.000000e+000
      vertex  3.000000e+000  4.190000e+001 -3.000000e+000
    endloop
  endfacet
  facet normal  0.000000e+000  0.000000e+000 -1.000000e+000
    outer loop
      vertex  3.000000e+000  4.190000e+001 -3.000000e+000
      vertex  3.300000e+001  4.290000e+001 -3.000000e+000
      vertex  3.300000e+001  4.190000e+001 -3.000000e+000
    endloop
  endfacet
  facet normal  -0.000000e+000  0.000000e+000 -1.000000e+000
    outer loop
      vertex  3.000000e+000  1.300000e+001 -3.000000e+000
      vertex  4.000000e+000  1.300000e+001 -3.000000e+000
      vertex  3.000000e+000  3.000000e+000 -3.000000e+000
    endloop
  endfacet
  facet normal  0.000000e+000  0.000000e+000 -1.000000e+000
    outer loop
      vertex  3.000000e+000  3.000000e+000 -3.000000e+000
      vertex  4.000000e+000  1.300000e+001 -3.000000e+000
      vertex  4.000000e+000  4.000000e+000 -3.000000e+000
    endloop
  endfacet
  facet normal  0.000000e+000  -0.000000e+000 -1.000000e+000
    outer loop
      vertex  3.000000e+000  3.000000e+000 -3.000000e+000
      vertex  4.000000e+000  4.000000e+000 -3.000000e+000
      vertex  3.300000e+001  3.000000e+000 -3.000000e+000
    endloop
  endfacet
  facet normal  0.000000e+000  0.000000e+000 -1.000000e+000
    outer loop
      vertex  3.300000e+001  3.000000e+000 -3.000000e+000
      vertex  4.000000e+000  4.000000e+000 -3.000000e+000
      vertex  3.200000e+001  4.000000e+000 -3.000000e+000
    endloop
  endfacet
  facet normal  0.000000e+000  0.000000e+000 -1.000000e+000
    outer loop
      vertex  3.300000e+001  3.000000e+000 -3.000000e+000
      vertex  3.200000e+001  4.000000e+000 -3.000000e+000
      vertex  3.300000e+001  1.300000e+001 -3.000000e+000
    endloop
  endfacet
  facet normal  -0.000000e+000  0.000000e+000 -1.000000e+000
    outer loop
      vertex  3.300000e+001  1.300000e+001 -3.000000e+000
      vertex  3.200000e+001  4.000000e+000 -3.000000e+000
      vertex  3.200000e+001  1.300000e+001 -3.000000e+000
    endloop
  endfacet
  facet normal  0.000000e+000  1.000000e+000  0.000000e+000
    outer loop
      vertex  2.400000e+001  1.450000e+001  0.000000e+000
      vertex  9.250000e+000  1.450000e+001  0.000000e+000
      vertex  2.400000e+001  1.450000e+001  2.000000e+000
    endloop
  endfacet
  facet normal  0.000000e+000  1.000000e+000  0.000000e+000
    outer loop
      vertex  2.400000e+001  1.450000e+001  2.000000e+000
      vertex  9.250000e+000  1.450000e+001  0.000000e+000
      vertex  9.250000e+000  1.450000e+001  2.000000e+000
    endloop
  endfacet
  facet normal  0.000000e+000 -1.000000e+000  0.000000e+000
    outer loop
      vertex  9.250000e+000  4.125000e+001  0.000000e+000
      vertex  2.400000e+001  4.125000e+001  0.000000e+000
      vertex  9.250000e+000  4.125000e+001  2.000000e+000
    endloop
  endfacet
  facet normal  0.000000e+000 -1.000000e+000  0.000000e+000
    outer loop
      vertex  9.250000e+000  4.125000e+001  2.000000e+000
      vertex  2.400000e+001  4.125000e+001  0.000000e+000
      vertex  2.400000e+001  4.125000e+001  2.000000e+000
    endloop
  endfacet
  facet normal  9.999999e-001  0.000000e+000  0.000000e+000
    outer loop
      vertex  9.250000e+000  1.450000e+001  0.000000e+000
      vertex  9.250000e+000  4.125000e+001  0.000000e+000
      vertex  9.250000e+000  1.450000e+001  2.000000e+000
    endloop
  endfacet
  facet normal  9.999999e-001  -0.000000e+000  0.000000e+000
    outer loop
      vertex  9.250000e+000  1.450000e+001  2.000000e+000
      vertex  9.250000e+000  4.125000e+001  0.000000e+000
      vertex  9.250000e+000  4.125000e+001  2.000000e+000
    endloop
  endfacet
endsolid CATIA STL
